<?xml version="1.0" encoding="UTF-8" standalone="no"?>
<svg
   xmlns:dc="http://purl.org/dc/elements/1.1/"
   xmlns:cc="http://creativecommons.org/ns#"
   xmlns:rdf="http://www.w3.org/1999/02/22-rdf-syntax-ns#"
   xmlns:svg="http://www.w3.org/2000/svg"
   xmlns="http://www.w3.org/2000/svg"
   xmlns:sodipodi="http://sodipodi.sourceforge.net/DTD/sodipodi-0.dtd"
   xmlns:inkscape="http://www.inkscape.org/namespaces/inkscape"
   version="1.1"
   id="svg2"
   xml:space="preserve"
   width="2829.3333"
   height="2829.3333"
   viewBox="0 0 2829.3333 2829.3333"
   sodipodi:docname="1908_U1RVRElPIEtBVCA1MDYtMjA.eps"><metadata
     id="metadata8"><rdf:RDF><cc:Work
         rdf:about=""><dc:format>image/svg+xml</dc:format><dc:type
           rdf:resource="http://purl.org/dc/dcmitype/StillImage" /></cc:Work></rdf:RDF></metadata><defs
     id="defs6"><clipPath
       clipPathUnits="userSpaceOnUse"
       id="clipPath20"><path
         d="m 10869.8,11989.3 c -1965.88,1621.5 -3065.73,61.8 -2538.22,-1332 701.36,-1853.1 2538.22,-2741.1 2538.22,-2741.1 0,0 1836.9,888 2538.3,2741.1 527.5,1393.8 -572.3,2953.5 -2538.3,1332 z"
         id="path18" /></clipPath></defs><sodipodi:namedview
     pagecolor="#ffffff"
     bordercolor="#666666"
     borderopacity="1"
     objecttolerance="10"
     gridtolerance="10"
     guidetolerance="10"
     inkscape:pageopacity="0"
     inkscape:pageshadow="2"
     inkscape:window-width="640"
     inkscape:window-height="480"
     id="namedview4" /><g
     id="g10"
     inkscape:groupmode="layer"
     inkscape:label="ink_ext_XXXXXX"
     transform="matrix(1.3333333,0,0,-1.3333333,0,2829.3333)"><g
       id="g12"
       transform="scale(0.1)"><g
         id="g14"><g
           id="g16"
           clip-path="url(#clipPath20)"><path
             d="M 10871.5,10513.8 H 8020.9 v 2712.7 h 2850.6 v -2712.7"
             style="fill:#305eb2;fill-opacity:1;fill-rule:nonzero;stroke:none"
             id="path22" /><path
             d="m 13718.8,10513.8 h -2850.6 v 2712.7 h 2850.6 v -2712.7"
             style="fill:#f2df1d;fill-opacity:1;fill-rule:nonzero;stroke:none"
             id="path24" /><path
             d="m 11150.5,9745.2 c 0,0 -115.5,-19.8 -279,-119.5 v 888.1 H 9828.1 c 141.42,-200.9 167.51,-351.6 167.51,-351.6 51.99,-347.2 -243.43,-539.2 -549.39,-544.4 -305.97,5.2 -601.35,197.2 -549.4,544.4 0,0 26.08,150.7 167.5,351.6 H 8020.9 V 9585 c -165.35,101.6 -282.59,121.8 -282.59,121.8 -347.22,52 -539.21,-243.4 -544.38,-549.4 5.17,-305.9 197.16,-601.3 544.38,-549.4 0,0 117.24,20.3 282.59,121.9 V 7801 h 960.99 c -101.44,165.2 -121.66,282.3 -121.66,282.3 -51.93,347.2 243.43,539.2 549.41,544.4 305.96,-5.2 601.36,-197.2 549.39,-544.4 0,0 -20.2,-117.1 -121.65,-282.3 h 1034.12 v 965 c 163.5,-99.7 279,-119.6 279,-119.6 347.2,-51.9 539.2,243.5 544.4,549.4 -5.2,306 -197.2,601.4 -544.4,549.4"
             style="fill:#f2df1d;fill-opacity:1;fill-rule:nonzero;stroke:none"
             id="path26" /><path
             d="m 13436.7,9743.6 c 0,0 117,-20.2 282.1,-121.5 v 891.7 h -1043.4 c 141.4,200.8 167.5,351.5 167.5,351.5 51.9,347.2 -243.5,539.2 -549.4,544.4 -306,-5.2 -601.4,-197.2 -549.4,-544.4 0,0 26,-150.7 167.4,-351.5 h -1043.3 v -892.2 c 165.5,101.8 282.8,122 282.8,122 347.2,52 539.2,-243.4 544.4,-549.4 -5.2,-305.9 -197.2,-601.3 -544.4,-549.4 0,0 -117.3,20.3 -282.8,122.1 V 7801 h 1043.3 c -141.4,-200.8 -167.4,-351.5 -167.4,-351.5 -52,-347.2 243.4,-539.2 549.4,-544.4 305.9,5.2 601.3,197.2 549.4,544.4 0,0 -26.1,150.7 -167.5,351.5 h 1043.4 v 965.4 c -165.1,-101.4 -282.1,-121.6 -282.1,-121.6 -347.3,-51.9 -539.2,243.5 -544.4,549.4 5.2,306 197.1,601.4 544.4,549.4"
             style="fill:#305eb2;fill-opacity:1;fill-rule:nonzero;stroke:none"
             id="path28" /><path
             d="m 14001.4,12419.5 c 0,0 -117.3,-20.2 -282.6,-121.9 v 928.9 h -1006.4 c 141.4,-200.8 167.4,-351.6 167.4,-351.6 52,-347.2 -243.4,-539.2 -549.4,-544.3 -305.9,5.1 -601.3,197.1 -549.4,544.3 0,0 26.1,150.8 167.5,351.6 h -1080.3 v -971.8 c -199.3,139.4 -348.4,165.2 -348.4,165.2 -347.2,51.9 -539.19,-243.4 -544.37,-549.4 5.18,-306 197.17,-601.4 544.37,-549.4 0,0 149.1,25.8 348.4,165.2 v -972.6 h 1043.4 c -141.4,200.9 -167.5,351.6 -167.5,351.6 -52,347.2 243.4,539.2 549.4,544.4 305.9,-5.2 601.3,-197.2 549.4,-544.4 0,0 -26.1,-150.7 -167.5,-351.6 h 1043.4 v 928.9 c 165.3,-101.7 282.6,-121.9 282.6,-121.9 347.2,-51.9 539.2,243.4 544.4,549.4 -5.2,306 -197.2,601.3 -544.4,549.4"
             style="fill:#f2df1d;fill-opacity:1;fill-rule:nonzero;stroke:none"
             id="path30" /><path
             d="m 10519.8,12419.9 c 0,0 150.8,-26.1 351.7,-167.6 v 974.2 H 9828.51 c 141.5,200.9 167.1,351.5 167.1,351.5 51.99,347.2 -243.43,539.2 -549.39,544.4 -305.97,-5.2 -601.35,-197.2 -549.4,-544.4 0,0 25.6,-150.6 167.09,-351.5 H 8020.9 v -972.2 c 199.22,139.4 348.32,165.2 348.32,165.2 347.22,51.9 539.22,-243.4 544.39,-549.4 -5.17,-306 -197.17,-601.3 -544.39,-549.4 0,0 -149.1,25.8 -348.32,165.2 v -972.2 h 1043.34 c -141.35,-200.8 -167.42,-351.5 -167.42,-351.5 -51.95,-347.2 243.43,-539.2 549.4,-544.4 305.96,5.2 601.38,197.2 549.39,544.4 0,0 -26.07,150.7 -167.43,351.5 h 1043.32 v 975 c -200.9,-141.5 -351.7,-167.6 -351.7,-167.6 -347.2,-52 -539.19,243.4 -544.37,549.4 5.18,306 197.17,601.3 544.37,549.4"
             style="fill:#305eb2;fill-opacity:1;fill-rule:nonzero;stroke:none"
             id="path32" /></g></g><path
         d="M 4727.75,12298.7 H 2128.56 v 4445.7 h 2599.19 v -4445.7"
         style="fill:#305eb2;fill-opacity:1;fill-rule:nonzero;stroke:none"
         id="path34" /><path
         d="m 8943.43,14556.4 c -31.45,13.1 54.75,157.1 150.3,301.5 263.07,397.8 1002.67,1079 2704.87,643.8 0,0 755.1,-264.8 1144,-254.2 587.4,16.1 1022.9,855.3 -127.7,1342.5 0,0 -2630.1,1077.4 -3737.72,649 -746.8,-288.8 -2591.74,-1647.9 -2591.74,-1647.9 l -1772.52,801.6 -7.54,-3107.2 1869.53,-1058.7 c 0,0 437.38,-239 535.35,-259.1 91.67,-18.8 374.05,125 571.51,216.3 907.47,419.5 3209.03,1554.6 3081.43,2307.4 0,0 -165.8,933 -1526.1,222.9 -68.72,-35.9 -273.24,-166.4 -293.67,-157.9"
         style="fill:#f9b292;fill-opacity:1;fill-rule:nonzero;stroke:none"
         id="path36" /><path
         d="m 4003.85,15396.1 c -192,0.4 -347.35,156.3 -346.99,348.3 0.37,192 156.31,347.4 348.31,347 191.99,-0.4 347.35,-156.3 346.98,-348.3 -0.37,-192 -156.3,-347.4 -348.3,-347"
         style="fill:#43bef0;fill-opacity:1;fill-rule:nonzero;stroke:none"
         id="path38" /><path
         d="m 3999.63,13167.2 c -192,0.3 -347.35,156.2 -346.98,348.2 0.35,192 156.3,347.4 348.3,347 191.99,-0.3 347.35,-156.3 346.98,-348.3 -0.36,-192 -156.3,-347.3 -348.3,-346.9"
         style="fill:#43bef0;fill-opacity:1;fill-rule:nonzero;stroke:none"
         id="path40" /><path
         d="m 5407.69,12293.5 h -783.72 v 4450.9 h 783.72 v -4450.9"
         style="fill:#f2df1d;fill-opacity:1;fill-rule:nonzero;stroke:none"
         id="path42" /><path
         d="m 16485.5,8928.2 h 2599.1 V 4482.3 h -2599.1 v 4445.9"
         style="fill:#305eb2;fill-opacity:1;fill-rule:nonzero;stroke:none"
         id="path44" /><path
         d="m 12269.8,6670.4 c 31.4,-13.1 -54.8,-157.1 -150.3,-301.5 -263.1,-397.8 -1002.6,-1079 -2704.87,-643.8 0,0 -755.15,264.8 -1144.04,254.2 -587.43,-16.1 -1022.86,-855.3 127.68,-1342.5 0,0 2630.13,-1077.4 3737.73,-649 746.8,288.8 2591.8,1647.9 2591.8,1647.9 l 1772.5,-801.6 7.5,3107.2 -1869.5,1058.7 c 0,0 -437.4,239 -535.4,259.1 -91.6,18.8 -374,-125 -571.5,-216.3 -907.4,-419.5 -3209,-1554.6 -3081.4,-2307.4 0,0 165.8,-933 1526.1,-222.9 68.7,35.9 273.2,166.4 293.7,157.9"
         style="fill:#f9b292;fill-opacity:1;fill-rule:nonzero;stroke:none"
         id="path46" /><path
         d="m 17209.4,5830.7 c 192,-0.4 347.3,-156.3 346.9,-348.3 -0.3,-192 -156.3,-347.4 -348.3,-347 -192,0.4 -347.3,156.3 -346.9,348.3 0.3,192 156.3,347.4 348.3,347"
         style="fill:#43bef0;fill-opacity:1;fill-rule:nonzero;stroke:none"
         id="path48" /><path
         d="m 17213.6,8059.6 c 192,-0.3 347.3,-156.3 347,-348.2 -0.4,-192 -156.3,-347.4 -348.3,-347 -192,0.3 -347.4,156.3 -347,348.3 0.3,192 156.3,347.3 348.3,346.9"
         style="fill:#43bef0;fill-opacity:1;fill-rule:nonzero;stroke:none"
         id="path50" /><path
         d="m 15805.5,8933.3 h 783.7 v -4451 h -783.7 v 4451"
         style="fill:#f2df1d;fill-opacity:1;fill-rule:nonzero;stroke:none"
         id="path52" /></g></g></svg>
