<svg xmlns="http://www.w3.org/2000/svg" width="300" height="250.823" viewBox="0 0 300 250.823">
  <g id="chat" transform="translate(0 0)">
    <ellipse id="Elipse_19" data-name="Elipse 19" cx="118.479" cy="6.059" rx="118.479" ry="6.059" transform="translate(22.432 238.707)" fill="#f2f2f2"/>
    <path id="Caminho_78" data-name="Caminho 78" d="M537.9,135.615h-1.346V98.743a21.34,21.34,0,0,0-21.34-21.34H437.1a21.34,21.34,0,0,0-21.34,21.34V301.024a21.34,21.34,0,0,0,21.34,21.34h78.118a21.34,21.34,0,0,0,21.34-21.34V161.861H537.9Z" transform="translate(-327.773 -77.403)" fill="#3f3d56"/>
    <path id="Caminho_79" data-name="Caminho 79" d="M543.623,109.834V311.818a15.938,15.938,0,0,1-15.937,15.937H449.193a15.938,15.938,0,0,1-15.937-15.937V109.834A15.938,15.938,0,0,1,449.193,93.9h9.522a7.575,7.575,0,0,0,7.011,10.431h44.753A7.576,7.576,0,0,0,517.491,93.9h10.2a15.938,15.938,0,0,1,15.938,15.937Z" transform="translate(-339.38 -88.345)" fill="#fff"/>
    <path id="Caminho_80" data-name="Caminho 80" d="M628.744,384.652q-.783.409-1.592.774-.737.333-1.5.626l-.562.212a30.129,30.129,0,0,1-4.578,1.262q-1.156.227-2.343.357-.979.111-1.979.158c-.475.023-.949.034-1.427.034a30.241,30.241,0,0,1-5.641-.528c-.485-.088-.959-.192-1.434-.306a29.882,29.882,0,0,1-6.621-2.444c-.189-.094-.377-.2-.566-.293-.279-.148-.552-.3-.825-.464.131-.182.273-.36.417-.535a17.851,17.851,0,0,1,26.547-1.38,18.27,18.27,0,0,1,1.7,1.972C628.485,384.278,628.616,384.463,628.744,384.652Z" transform="translate(-449.788 -276.068)" fill="#00368f"/>
    <circle id="Elipse_20" data-name="Elipse 20" cx="14.779" cy="14.779" r="14.779" transform="translate(150.87 64.239)" fill="#2f2e41"/>
    <circle id="Elipse_21" data-name="Elipse 21" cx="11" cy="11" r="11" transform="translate(149.375 79.791) rotate(-28.663)" fill="#a0616a"/>
    <path id="Caminho_81" data-name="Caminho 81" d="M634.563,295.3a14.961,14.961,0,0,1-8.55,2.642,9.168,9.168,0,0,0,3.634,1.495,30.167,30.167,0,0,1-12.322.069,7.976,7.976,0,0,1-2.58-.886,3.264,3.264,0,0,1-1.592-2.129c-.27-1.544.933-2.948,2.184-3.893a16.109,16.109,0,0,1,13.536-2.7,7.413,7.413,0,0,1,4.009,2.266,3.652,3.652,0,0,1,.337,4.337Z" transform="translate(-458.701 -218.048)" fill="#2f2e41"/>
    <path id="Caminho_82" data-name="Caminho 82" d="M584.787,230.173a30.288,30.288,0,0,0-15.766,56.153l.2.114q.242.146.485.283c.273.162.545.316.824.465.189.1.377.2.566.293a29.884,29.884,0,0,0,6.621,2.444c.475.114.949.219,1.434.306a30.241,30.241,0,0,0,5.641.528c.478,0,.953-.01,1.427-.034q1-.045,1.979-.158,1.187-.131,2.343-.357a30.131,30.131,0,0,0,4.578-1.262l.562-.212q.762-.293,1.5-.626.808-.364,1.592-.774a30.559,30.559,0,0,0,12.467-12.107c.013-.027.03-.054.044-.081a30.294,30.294,0,0,0-26.49-44.975Zm25.938,44.581c-.027.047-.05.094-.077.138a29.677,29.677,0,0,1-12.279,11.888q-.773.4-1.572.757c-.441.2-.892.387-1.346.562-.192.074-.387.148-.582.215a28.844,28.844,0,0,1-3.948,1.131,28.512,28.512,0,0,1-3.013.475c-.623.067-1.255.114-1.892.138-.407.017-.818.027-1.229.027a29.2,29.2,0,0,1-5.459-.508,28.81,28.81,0,0,1-3.241-.794,29.775,29.775,0,0,1-4.709-1.908c-.175-.091-.35-.182-.522-.276-.246-.131-.495-.266-.737-.411-.182-.1-.364-.209-.542-.316-.1-.061-.209-.125-.313-.189a29.643,29.643,0,1,1,41.461-10.929Z" transform="translate(-419.809 -178.752)" fill="#3f3d56"/>
    <path id="Caminho_83" data-name="Caminho 83" d="M610.645,264.279c-.159-1.672-2.207-2.7-3.809-2.2a4.791,4.791,0,0,0-2.972,3.767,5.4,5.4,0,0,0,.729,4.08,3.718,3.718,0,0,0,3.686,1.6,4.275,4.275,0,0,0,3-3.474,12.562,12.562,0,0,0-.309-4.817Z" transform="translate(-452.48 -199.836)" fill="#2f2e41"/>
    <path id="Caminho_84" data-name="Caminho 84" d="M677.627,271.376c-.159-1.672-2.208-2.7-3.81-2.2a4.791,4.791,0,0,0-2.972,3.767,5.405,5.405,0,0,0,.729,4.08,3.718,3.718,0,0,0,3.686,1.6,4.275,4.275,0,0,0,3-3.474,12.561,12.561,0,0,0-.309-4.817Z" transform="translate(-496.916 -204.544)" fill="#2f2e41"/>
    <path id="Caminho_85" data-name="Caminho 85" d="M266.97,235.317a1.506,1.506,0,0,1-1.113-.493l-16.7-18.221a2.026,2.026,0,0,0-1.49-.655H159.4a5.058,5.058,0,0,1-5.052-5.052V179.068a5.058,5.058,0,0,1,5.052-5.052H273.752a5.058,5.058,0,0,1,5.052,5.052V210.9a5.058,5.058,0,0,1-5.052,5.052H270.51a2.023,2.023,0,0,0-2.021,2.021V233.8a1.506,1.506,0,0,1-.966,1.412A1.524,1.524,0,0,1,266.97,235.317Z" transform="translate(-154.353 -141.497)" fill="#fff"/>
    <path id="Caminho_86" data-name="Caminho 86" d="M266.97,235.317a1.506,1.506,0,0,1-1.113-.493l-16.7-18.221a2.026,2.026,0,0,0-1.49-.655H159.4a5.058,5.058,0,0,1-5.052-5.052V179.068a5.058,5.058,0,0,1,5.052-5.052H273.752a5.058,5.058,0,0,1,5.052,5.052V210.9a5.058,5.058,0,0,1-5.052,5.052H270.51a2.023,2.023,0,0,0-2.021,2.021V233.8a1.506,1.506,0,0,1-.966,1.412A1.524,1.524,0,0,1,266.97,235.317ZM159.4,174.689a4.384,4.384,0,0,0-4.379,4.379V210.9a4.384,4.384,0,0,0,4.379,4.379h88.26a2.7,2.7,0,0,1,1.986.874l16.7,18.221a.842.842,0,0,0,1.463-.569V217.969a2.7,2.7,0,0,1,2.694-2.694h3.242a4.384,4.384,0,0,0,4.379-4.379V179.068a4.384,4.384,0,0,0-4.379-4.379Z" transform="translate(-154.353 -141.497)" fill="#3f3d56"/>
    <circle id="Elipse_22" data-name="Elipse 22" cx="4.421" cy="4.421" r="4.421" transform="translate(7.971 37.718)" fill="#00368f"/>
    <path id="Caminho_87" data-name="Caminho 87" d="M284.07,265.975H180.037a2.358,2.358,0,0,1,0-4.715H284.07a2.358,2.358,0,0,1,0,4.715Z" transform="translate(-169.828 -199.375)" fill="#e6e6e6"/>
    <path id="Caminho_88" data-name="Caminho 88" d="M250.178,236.206H180.037a2.358,2.358,0,0,1,0-4.715h70.141a2.358,2.358,0,0,1,0,4.715Z" transform="translate(-169.828 -179.626)" fill="#e6e6e6"/>
    <path id="Caminho_89" data-name="Caminho 89" d="M687.185,556.213a1.506,1.506,0,0,1-.966-1.412V538.97a2.023,2.023,0,0,0-2.021-2.021h-3.242A5.058,5.058,0,0,1,675.9,531.9V500.068a5.058,5.058,0,0,1,5.052-5.052H795.3a5.058,5.058,0,0,1,5.052,5.052V531.9a5.057,5.057,0,0,1-5.052,5.052h-88.26a2.026,2.026,0,0,0-1.49.655l-16.7,18.221a1.507,1.507,0,0,1-1.667.388Z" transform="translate(-500.356 -354.452)" fill="#fff"/>
    <path id="Caminho_90" data-name="Caminho 90" d="M687.185,556.213a1.506,1.506,0,0,1-.966-1.412V538.97a2.023,2.023,0,0,0-2.021-2.021h-3.242A5.058,5.058,0,0,1,675.9,531.9V500.068a5.058,5.058,0,0,1,5.052-5.052H795.3a5.058,5.058,0,0,1,5.052,5.052V531.9a5.057,5.057,0,0,1-5.052,5.052h-88.26a2.026,2.026,0,0,0-1.49.655l-16.7,18.221a1.507,1.507,0,0,1-1.667.388Zm-6.229-60.524a4.384,4.384,0,0,0-4.379,4.379V531.9a4.384,4.384,0,0,0,4.379,4.379H684.2a2.7,2.7,0,0,1,2.694,2.694V554.8a.842.842,0,0,0,1.463.569l16.7-18.221a2.7,2.7,0,0,1,1.986-.874H795.3a4.384,4.384,0,0,0,4.379-4.379V500.068a4.384,4.384,0,0,0-4.379-4.379Z" transform="translate(-500.356 -354.452)" fill="#3f3d56"/>
    <path id="Caminho_91" data-name="Caminho 91" d="M541.4,688.267a29.979,29.979,0,0,1-31.522.5,18.221,18.221,0,0,1,3.164-4.258,17.985,17.985,0,0,1,28.243,3.558C541.324,688.132,541.364,688.2,541.4,688.267Z" transform="translate(-390.213 -476.65)" fill="#00368f"/>
    <circle id="Elipse_23" data-name="Elipse 23" cx="14.878" cy="14.878" r="14.878" transform="translate(119.234 165.765)" fill="#2f2e41"/>
    <circle id="Elipse_24" data-name="Elipse 24" cx="11.073" cy="11.073" r="11.073" transform="translate(120.437 190.232) rotate(-61.337)" fill="#ffb8b8"/>
    <path id="Caminho_92" data-name="Caminho 92" d="M522.25,597.109a15.06,15.06,0,0,0,8.607,2.66,9.23,9.23,0,0,1-3.658,1.505,30.371,30.371,0,0,0,12.4.07,8.029,8.029,0,0,0,2.6-.892,3.287,3.287,0,0,0,1.6-2.144c.272-1.555-.939-2.967-2.2-3.919a16.216,16.216,0,0,0-13.626-2.723,7.462,7.462,0,0,0-4.036,2.281,3.676,3.676,0,0,0-.34,4.366Z" transform="translate(-398.42 -418.248)" fill="#2f2e41"/>
    <path id="Caminho_93" data-name="Caminho 93" d="M495.825,601.787A30.284,30.284,0,1,1,512.173,597,30.284,30.284,0,0,1,495.825,601.787Zm0-59.913a29.623,29.623,0,1,0,29.62,29.621A29.623,29.623,0,0,0,495.825,541.874Z" transform="translate(-360.803 -385.101)" fill="#3f3d56"/>
    <circle id="Elipse_25" data-name="Elipse 25" cx="4.421" cy="4.421" r="4.421" transform="translate(185.353 145.426)" fill="#00368f"/>
    <path id="Caminho_94" data-name="Caminho 94" d="M811.068,585.975H707.037a2.358,2.358,0,0,1,0-4.715H811.07a2.358,2.358,0,0,1,0,4.715Z" transform="translate(-519.446 -411.667)" fill="#e6e6e6"/>
    <path id="Caminho_95" data-name="Caminho 95" d="M777.178,556.206H707.037a2.358,2.358,0,0,1,0-4.715h70.141a2.358,2.358,0,0,1,0,4.715Z" transform="translate(-519.446 -391.918)" fill="#e6e6e6"/>
    <ellipse id="Elipse_26" data-name="Elipse 26" cx="8.248" cy="0.915" rx="8.248" ry="0.915" transform="translate(178.439 202.943)" fill="#f2f2f2"/>
    <ellipse id="Elipse_27" data-name="Elipse 27" cx="8.248" cy="0.915" rx="8.248" ry="0.915" transform="translate(104.726 95.235)" fill="#f2f2f2"/>
  </g>
</svg>
