<svg xmlns="http://www.w3.org/2000/svg" width="200" height="131.455" viewBox="0 0 200 131.455">
  <g id="Grupo_3" data-name="Grupo 3" transform="translate(0 0)">
    <path id="Caminho_55" data-name="Caminho 55" d="M511.235,103.589l-36.214,30.837-7.924,6.746-22.173-.135L426,140.922l-1.572-.009-3.84-4.51-15.267-17.93-7.664-9-2.3-2.706-1.667-1.958-3.715-4.363-6.015-7.063,6.092-5.187,5.818-4.954,4.182-3.56L452.7,34.846Z" transform="translate(-316.832 -28.754)" fill="#f2f2f2"/>
    <rect id="Retângulo_1" data-name="Retângulo 1" width="69.406" height="50.175" transform="translate(16.958 17.819)" fill="#3f3d56"/>
    <rect id="Retângulo_2" data-name="Retângulo 2" width="65.385" height="0.35" transform="translate(101.224 121.49)" fill="#3f3d56"/>
    <path id="Caminho_56" data-name="Caminho 56" d="M914.584,592.572H862.25s-1.061-15.559,5.216-15.736,5.569,6.9,13.437-2.829,17.415-9.194,18.653-3.448-2.387,10.343,4.243,8.929S919.978,581.786,914.584,592.572Z" transform="translate(-716.347 -480.347)" fill="#00225a"/>
    <path id="Caminho_57" data-name="Caminho 57" d="M1006.356,592.144l-.177-.007c.412-10.244,2.557-16.826,4.285-20.543a18.649,18.649,0,0,1,3.7-5.687l.117.132a18.519,18.519,0,0,0-3.664,5.643C1008.9,575.384,1006.767,581.938,1006.356,592.144Z" transform="translate(-835.169 -479.916)" fill="#f2f2f2"/>
    <path id="Caminho_58" data-name="Caminho 58" d="M1114.739,661.646l-.17-.049a27.426,27.426,0,0,1,6.905-11.488l.119.131A27.242,27.242,0,0,0,1114.739,661.646Z" transform="translate(-924.61 -549.397)" fill="#f2f2f2"/>
    <path id="Caminho_59" data-name="Caminho 59" d="M887.816,643.362l-.175-.024a19.256,19.256,0,0,0-1.732-11.255,15.5,15.5,0,0,0-2.734-3.989l.122-.128a15.692,15.692,0,0,1,2.77,4.038A19.434,19.434,0,0,1,887.816,643.362Z" transform="translate(-733.669 -531.125)" fill="#f2f2f2"/>
    <rect id="Retângulo_3" data-name="Retângulo 3" width="192.483" height="0.35" transform="translate(7.517 112.224)" fill="#3f3d56"/>
    <rect id="Retângulo_4" data-name="Retângulo 4" width="16.555" height="20.568" transform="translate(126.702 6.89)" fill="#2f2e41"/>
    <path id="Caminho_60" data-name="Caminho 60" d="M635.885,588.213l-2.257,8.278,3.763,2.759,1-.753,1.756-8.528Z" transform="translate(-522.853 -485.379)" fill="#ffb8b8"/>
    <path id="Caminho_61" data-name="Caminho 61" d="M805.117,583.909l-.752,10.033h4.766v-9.281Z" transform="translate(-663.742 -481.827)" fill="#ffb8b8"/>
    <path id="Caminho_62" data-name="Caminho 62" d="M722.583,220.912v6.02l9.281,1.505,8.027-3.261-1.5-3.763Z" transform="translate(-596.257 -182.291)" fill="#ffb8b8"/>
    <path id="Caminho_63" data-name="Caminho 63" d="M691.373,307.575l-8.027-1.505-2.007,16.3-5.017,20.318S668.8,360,669.8,364.012l.5,1.254-.5,2.258,5.017,2.007,2.007-3.261s1.505,2.258,4.013-2.508S693.881,329.4,693.881,329.4l1.756,5.017a10.338,10.338,0,0,0-.251,4.766c.5,2.508,1,10.284,1,10.284s-2.759,13.545,1,14.548l.753,3.01,5.268.5,1-3.01s5.017-1.756,3.763-10.535-1.756-37.625-1.756-37.625l-4.942-12.184Z" transform="translate(-557.522 -263.937)" fill="#2f2e41"/>
    <path id="Caminho_64" data-name="Caminho 64" d="M620.711,702.987s-1.254-1-1.756-.753-5.769,7.023-5.769,7.023-5.518,4.264-1.505,4.766,15.05-5.017,15.05-6.271-2.319-4.4-2.319-4.4A2.819,2.819,0,0,1,620.711,702.987Z" transform="translate(-508.432 -592.377)" fill="#2f2e41"/>
    <path id="Caminho_65" data-name="Caminho 65" d="M825.418,702.189s4.515-.28,5.268.487.5,4.53.5,4.53.5,6.773-3.512,6.773-3.01-4.515-3.01-4.515Z" transform="translate(-685.296 -592.331)" fill="#2f2e41"/>
    <circle id="Elipse_12" data-name="Elipse 12" cx="6.271" cy="6.271" r="6.271" transform="translate(129.336 4.006)" fill="#ffb8b8"/>
    <path id="Caminho_66" data-name="Caminho 66" d="M753.038,155.06s3.512,4.264-3.512,7.525,5.017,16.806,5.017,16.806,14.047-5.268,12.793-15.552c0,0-8.528-1.505-6.522-8.528Z" transform="translate(-621.57 -140.895)" fill="#ffb8b8"/>
    <path id="Caminho_67" data-name="Caminho 67" d="M722.482,196.463s-5.769-.753-6.02,4.013,0,16.3,0,16.3-2.508,10.033-1.254,18.813c0,0-1.505,10.284,2.508,9.783s1-10.535,1-10.535l1.756-16.3-.753-12.04,3.261-7.274Z" transform="translate(-594.777 -175.025)" fill="#ffb8b8"/>
    <path id="Caminho_68" data-name="Caminho 68" d="M844.931,203.006s5.47-.1,5.721,3.909-1.756,16.3-1.756,16.3l-3.01,1.505-2.759-8.528Z" transform="translate(-700.622 -180.459)" fill="#ffb8b8"/>
    <path id="Caminho_69" data-name="Caminho 69" d="M841.044,317.641l-.5,1.254,1.505,3.763s-6.02,4.766-5.518,5.769,3.261-1.254,3.261-1.254l4.013,2.007s3.261-3.512,1.756-6.773a37.829,37.829,0,0,1-2.086-5.427S841.295,316.888,841.044,317.641Z" transform="translate(-695.153 -274.505)" fill="#ffb8b8"/>
    <path id="Caminho_70" data-name="Caminho 70" d="M741.754,191.647,741,199.925s-3.512,3.512.5,8.278l-.5,3.763s9.281-.5,11.037,0,7.178-.4,7.178-.4l.1-2.857a12.892,12.892,0,0,0,1.756-8.779c-.753-5.268,0-7.023,0-7.023l-1.756-.251s-1.129,7.65-8.9,8.4c0,0-9.657.878-6.9-9.406Z" transform="translate(-615.177 -171.086)" fill="#00225a"/>
    <path id="Caminho_71" data-name="Caminho 71" d="M722.833,74.156s-6.522-.4-8.027,3.651a15.339,15.339,0,0,1-4.139,6.185,6.657,6.657,0,0,0-2.074,8.032s-6.454,4.337-2.19,8.19a9.462,9.462,0,0,0,2.258,6.489s2.007,1.014,1.254,1.622,5.017.2,4.515-5.272a13.389,13.389,0,0,1,2.885-9.331s-3.261-7.1-1.756-9.532c.914-1.477,1.306-2.579,2.065-3.217a9.512,9.512,0,0,0,1.171-1.143,2.7,2.7,0,0,1,2.91-.907,3.833,3.833,0,0,1,2.759,2.433s1.63,4.36,4.39,6.387-2.132,5.576-2.132,5.576.85,4.178,3.059,6.651-.636,4.63-.8,4.907c-.376.633-1.879,4.628,4.328,4.646a18.276,18.276,0,0,1,3.448-4.849c2.007-1.825.5-7.1.5-7.1s3.01-1.825-.251-6.286c0,0,1-4.055-1.756-6.692C735.249,84.6,731.361,72.737,722.833,74.156Z" transform="translate(-586.599 -74.038)" fill="#2f2e41"/>
    <ellipse id="Elipse_13" data-name="Elipse 13" cx="0.627" cy="1.003" rx="0.627" ry="1.003" transform="translate(128.207 9.148)" fill="#ffb8b8"/>
    <path id="Caminho_72" data-name="Caminho 72" d="M131.865,580.946H28.368s-2.1-30.769,10.315-31.119,11.014,13.636,26.573-5.594,34.441-18.182,36.888-6.818-4.72,20.455,8.392,17.657S142.529,559.617,131.865,580.946Z" transform="translate(-28.193 -449.665)" fill="#00225a"/>
    <path id="Caminho_73" data-name="Caminho 73" d="M313.358,580.1l-.349-.014c.815-20.258,5.057-33.274,8.473-40.626,3.709-7.983,7.283-11.214,7.318-11.246l.232.261c-.035.031-3.567,3.231-7.246,11.159C318.389,546.956,314.17,559.918,313.358,580.1Z" transform="translate(-263.182 -448.813)" fill="#f2f2f2"/>
    <path id="Caminho_74" data-name="Caminho 74" d="M527.683,717.547l-.336-.1A54.238,54.238,0,0,1,541,694.73l.235.259A53.869,53.869,0,0,0,527.683,717.547Z" transform="translate(-440.049 -586.218)" fill="#f2f2f2"/>
    <path id="Caminho_75" data-name="Caminho 75" d="M78.926,681.389l-.346-.048a38.081,38.081,0,0,0-3.425-22.258,30.648,30.648,0,0,0-5.406-7.888l.242-.252a31.033,31.033,0,0,1,5.477,7.986A38.43,38.43,0,0,1,78.926,681.389Z" transform="translate(-62.45 -550.085)" fill="#f2f2f2"/>
    <rect id="Retângulo_5" data-name="Retângulo 5" width="146.329" height="0.35" transform="translate(0 131.106)" fill="#3f3d56"/>
    <path id="Caminho_76" data-name="Caminho 76" d="M205.993,157H124V91.962h81.993Zm-81.643-.35h81.294V92.312H124.35Z" transform="translate(-107.217 -88.829)" fill="#3f3d56"/>
    <circle id="Elipse_14" data-name="Elipse 14" cx="2.972" cy="2.972" r="2.972" transform="translate(20.979 26.91)" fill="#00225a"/>
    <circle id="Elipse_15" data-name="Elipse 15" cx="2.972" cy="2.972" r="2.972" transform="translate(29.371 26.91)" fill="#d0cde1"/>
    <circle id="Elipse_16" data-name="Elipse 16" cx="2.972" cy="2.972" r="2.972" transform="translate(37.762 26.91)" fill="#00225a" opacity="0.5"/>
    <circle id="Elipse_17" data-name="Elipse 17" cx="2.972" cy="2.972" r="2.972" transform="translate(46.154 26.91)" fill="#f2f2f2"/>
    <rect id="Retângulo_6" data-name="Retângulo 6" width="24.476" height="2.797" transform="translate(57.692 28.483)" fill="#f2f2f2"/>
    <circle id="Elipse_18" data-name="Elipse 18" cx="8.042" cy="8.042" r="8.042" transform="translate(42.308 41.595)" fill="#f2f2f2"/>
    <path id="Caminho_77" data-name="Caminho 77" d="M296.229,310.047l-4.024-4.024a.7.7,0,0,1,.989-.989L296.162,308l9.473-10.8a.7.7,0,0,1,1.052.922Z" transform="translate(-245.846 -257.989)" fill="#00225a"/>
  </g>
</svg>
