<svg xmlns="http://www.w3.org/2000/svg" xmlns:xlink="http://www.w3.org/1999/xlink" width="300" height="227.402" viewBox="0 0 300 227.402">
  <defs>
    <linearGradient id="linear-gradient" x1="0.5" y1="1" x2="0.5" gradientUnits="objectBoundingBox">
      <stop offset="0" stop-color="gray" stop-opacity="0.251"/>
      <stop offset="0.54" stop-color="gray" stop-opacity="0.122"/>
      <stop offset="1" stop-color="gray" stop-opacity="0.102"/>
    </linearGradient>
    <linearGradient id="linear-gradient-2" y1="1" y2="0" xlink:href="#linear-gradient"/>
    <linearGradient id="linear-gradient-3" x1="0" y1="0.5" x2="1" y2="0.5" xlink:href="#linear-gradient"/>
    <linearGradient id="linear-gradient-4" x1="2.581" y1="1" x2="2.581" y2="0" xlink:href="#linear-gradient"/>
    <linearGradient id="linear-gradient-5" y1="1" y2="0" xlink:href="#linear-gradient"/>
    <linearGradient id="linear-gradient-6" x1="-25.357" y1="1.001" x2="-25.357" y2="0" xlink:href="#linear-gradient"/>
  </defs>
  <g id="Pesquisar" transform="translate(0 0.006)">
    <path id="Caminho_152" data-name="Caminho 152" d="M325.269,147.3c-10.547,14.473-7.067,35.131-.97,51.589,2.042,5.509,4.362,11.337,3.3,17.331-1.293,7.328-7.371,12.818-13.689,15.809a36.273,36.273,0,0,1-35.424-2.287c-8.89-5.927-15.149-15.776-24.212-21.421-15.168-9.443-34.859-5.224-51.74,1.986-11.943,5.1-25.025,11.668-36.664,6.959-8.19-3.314-13.7-11.749-16.606-20.766-1.4-4.354-2.382-9.079-5.173-12.487a19.1,19.1,0,0,0-6.107-4.618c-20.58-10.776-47.052-4.041-67-16.065-13.47-8.12-21.854-23.878-25.338-40.443s-2.621-34.053-1.234-51.241c.986-12.215,2.546-25.268,9.89-34.867C62.069,26.633,75.087,22.6,86.728,24.19s22.078,8.055,31.208,15.774c11.42,9.629,21.927,21.717,36.13,25.373,9.674,2.489,19.952.727,30.009-.051,16.811-1.3,33.563.2,50.212,1.886,15.938,1.616,31.987,3.421,47.082,8.721,10.682,3.75,19.149,10.838,29.206,15.682,6.555,3.157,13.767,3.89,19.936,7.969,7.613,5.024,14.494,13.926,12.261,24.608C340.663,134.3,330.873,139.623,325.269,147.3Z" transform="translate(-43.2 -23.86)" fill="#00368f" opacity="0.1"/>
    <g id="Grupo_2" data-name="Grupo 2" transform="translate(212.77 96.391)" opacity="0.5">
      <path id="Caminho_153" data-name="Caminho 153" d="M898.19,520.306s.889-26.337,15.138-41.219a39.922,39.922,0,0,0,10.949-22.76,67.153,67.153,0,0,0,.334-12.277" transform="translate(-880.619 -427.243)" fill="none" stroke="#535461" stroke-miterlimit="10" stroke-width="2"/>
      <path id="Caminho_154" data-name="Caminho 154" d="M999.9,389.046c-.975,2.942-9.128,9.7-9.128,9.7s-2.5-10.294-1.522-13.233a5.61,5.61,0,1,1,10.65,3.532Z" transform="translate(-946.98 -381.666)" fill="#00368f"/>
      <path id="Caminho_155" data-name="Caminho 155" d="M1006.932,452.892c-2.425,1.94-12.932,3.184-12.932,3.184s3.5-10,5.927-11.935a5.609,5.609,0,1,1,7,8.75Z" transform="translate(-950.617 -426.303)" fill="#00368f"/>
      <path id="Caminho_156" data-name="Caminho 156" d="M971.683,552.963c-3.066.453-12.773-3.772-12.773-3.772s8.066-6.864,11.132-7.317a5.61,5.61,0,1,1,1.641,11.1Z" transform="translate(-924.981 -498.668)" fill="#00368f"/>
      <path id="Caminho_157" data-name="Caminho 157" d="M925.918,625.266c-2.945.964-13.228-1.568-13.228-1.568s6.792-8.128,9.736-9.092a5.611,5.611,0,0,1,3.5,10.66Z" transform="translate(-891.213 -551.644)" fill="#00368f"/>
      <path id="Caminho_158" data-name="Caminho 158" d="M950.1,458.287c1.431,2.748,10.563,8.128,10.563,8.128s.83-10.558-.6-13.309a5.609,5.609,0,0,0-9.952,5.178Z" transform="translate(-918.088 -431.653)" fill="#00368f"/>
      <path id="Caminho_159" data-name="Caminho 159" d="M896.345,539.125c2.188,2.2,12.5,4.6,12.5,4.6s-2.368-10.324-4.553-12.519a5.609,5.609,0,1,0-7.948,7.918Z" transform="translate(-878.076 -489.712)" fill="#00368f"/>
      <path id="Caminho_160" data-name="Caminho 160" d="M859.429,629.689c1.784,2.532,11.544,6.646,11.544,6.646s-.587-10.574-2.374-13.109a5.609,5.609,0,1,0-9.16,6.466Z" transform="translate(-851.478 -556.301)" fill="#00368f"/>
      <path id="Caminho_161" data-name="Caminho 161" d="M874.493,573.544s-8.082-11.757-6.665-22.819a21.617,21.617,0,0,0-2.554-13.433,36.37,36.37,0,0,0-3.8-5.453" transform="translate(-853.792 -491.382)" fill="none" stroke="#535461" stroke-miterlimit="10" stroke-width="2"/>
      <path id="Caminho_162" data-name="Caminho 162" d="M848.574,500.267c.52,1.595-.854,7.161-.854,7.161s-4.4-3.68-4.919-5.272a3.037,3.037,0,0,1,5.773-1.886Z" transform="translate(-840.042 -466.786)" fill="#00368f"/>
      <path id="Caminho_163" data-name="Caminho 163" d="M876.955,522.583c-.428,1.616-4.609,5.547-4.609,5.547s-1.692-5.48-1.264-7.1a3.038,3.038,0,1,1,5.873,1.554Z" transform="translate(-860.763 -481.831)" fill="#00368f"/>
      <path id="Caminho_164" data-name="Caminho 164" d="M892.228,575.12c-1.188,1.183-6.778,2.462-6.778,2.462s1.3-5.585,2.495-6.768a3.038,3.038,0,1,1,4.284,4.311Z" transform="translate(-871.312 -519.211)" fill="#00368f"/>
      <path id="Caminho_165" data-name="Caminho 165" d="M897.277,621.737C896.3,623.1,891,625.3,891,625.3s.342-5.725,1.315-7.091a3.037,3.037,0,1,1,4.952,3.518Z" transform="translate(-875.366 -553.552)" fill="#00368f"/>
      <path id="Caminho_166" data-name="Caminho 166" d="M849.221,546.367c1.506.738,7.209.145,7.209.145s-3.036-4.865-4.542-5.6a3.036,3.036,0,1,0-2.667,5.456Z" transform="translate(-843.598 -497.784)" fill="#00368f"/>
      <path id="Caminho_167" data-name="Caminho 167" d="M851.831,598.9c1.66.253,6.924-2.018,6.924-2.018s-4.354-3.734-6.01-3.977a3.037,3.037,0,1,0-.913,6.005Z" transform="translate(-844.864 -535.97)" fill="#00368f"/>
      <path id="Caminho_168" data-name="Caminho 168" d="M865.127,650.292c1.592.539,7.166-.808,7.166-.808s-3.659-4.416-5.251-4.946a3.038,3.038,0,1,0-1.915,5.765Z" transform="translate(-854.944 -573.604)" fill="#00368f"/>
      <path id="Caminho_169" data-name="Caminho 169" d="M848.574,500.267c.52,1.595-.854,7.161-.854,7.161s-4.4-3.68-4.919-5.272a3.037,3.037,0,0,1,5.773-1.886Z" transform="translate(-840.042 -466.786)" fill="#fff" opacity="0.5"/>
      <path id="Caminho_170" data-name="Caminho 170" d="M876.955,522.583c-.428,1.616-4.609,5.547-4.609,5.547s-1.692-5.48-1.264-7.1a3.038,3.038,0,1,1,5.873,1.554Z" transform="translate(-860.763 -481.831)" fill="#fff" opacity="0.5"/>
      <path id="Caminho_171" data-name="Caminho 171" d="M892.228,575.12c-1.188,1.183-6.778,2.462-6.778,2.462s1.3-5.585,2.495-6.768a3.038,3.038,0,1,1,4.284,4.311Z" transform="translate(-871.312 -519.211)" fill="#fff" opacity="0.5"/>
      <path id="Caminho_172" data-name="Caminho 172" d="M897.277,621.737C896.3,623.1,891,625.3,891,625.3s.342-5.725,1.315-7.091a3.037,3.037,0,1,1,4.952,3.518Z" transform="translate(-875.366 -553.552)" fill="#fff" opacity="0.5"/>
      <path id="Caminho_173" data-name="Caminho 173" d="M849.221,546.367c1.506.738,7.209.145,7.209.145s-3.036-4.865-4.542-5.6a3.036,3.036,0,1,0-2.667,5.456Z" transform="translate(-843.598 -497.784)" fill="#fff" opacity="0.5"/>
      <path id="Caminho_174" data-name="Caminho 174" d="M851.831,598.9c1.66.253,6.924-2.018,6.924-2.018s-4.354-3.734-6.01-3.977a3.037,3.037,0,1,0-.913,6.005Z" transform="translate(-844.864 -535.97)" fill="#fff" opacity="0.5"/>
      <path id="Caminho_175" data-name="Caminho 175" d="M865.127,650.292c1.592.539,7.166-.808,7.166-.808s-3.659-4.416-5.251-4.946a3.038,3.038,0,1,0-1.915,5.765Z" transform="translate(-854.944 -573.604)" fill="#fff" opacity="0.5"/>
      <path id="Caminho_176" data-name="Caminho 176" d="M795.516,686.038H818.5l5.749-35.058H789.77Z" transform="translate(-789.77 -571.997)" fill="#474059"/>
      <path id="Caminho_177" data-name="Caminho 177" d="M794.169,650.98l5.369,32.76h19.343l-.377,2.3H795.516L789.77,650.98Z" transform="translate(-789.77 -571.997)" opacity="0.1"/>
    </g>
    <rect id="Retângulo_9" data-name="Retângulo 9" width="168.649" height="203.483" transform="translate(54.226 10.581)" fill="url(#linear-gradient)"/>
    <rect id="Retângulo_10" data-name="Retângulo 10" width="164.338" height="198.284" transform="translate(56.381 13.183)" fill="#fff"/>
    <rect id="Retângulo_11" data-name="Retângulo 11" width="66.274" height="3.233" transform="translate(120.231 35.544)" fill="#c0bccf"/>
    <rect id="Retângulo_12" data-name="Retângulo 12" width="66.274" height="3.233" transform="translate(120.231 45.781)" fill="#c0bccf"/>
    <rect id="Retângulo_13" data-name="Retângulo 13" width="34.484" height="3.233" transform="translate(136.126 56.019)" fill="#00368f"/>
    <rect id="Retângulo_14" data-name="Retângulo 14" width="66.274" height="3.233" transform="translate(120.231 100.471)" fill="#c0bccf" opacity="0.5"/>
    <rect id="Retângulo_15" data-name="Retângulo 15" width="66.274" height="3.233" transform="translate(120.231 110.709)" fill="#c0bccf" opacity="0.5"/>
    <rect id="Retângulo_16" data-name="Retângulo 16" width="34.484" height="3.233" transform="translate(136.126 120.946)" fill="#00368f" opacity="0.5"/>
    <rect id="Retângulo_17" data-name="Retângulo 17" width="66.274" height="3.233" transform="translate(120.231 165.398)" fill="#c0bccf" opacity="0.5"/>
    <rect id="Retângulo_18" data-name="Retângulo 18" width="66.274" height="3.233" transform="translate(120.231 175.636)" fill="#c0bccf" opacity="0.5"/>
    <rect id="Retângulo_19" data-name="Retângulo 19" width="34.484" height="3.233" transform="translate(136.126 185.873)" fill="#00368f" opacity="0.5"/>
    <g id="Grupo_3" data-name="Grupo 3" transform="translate(65.272 94.002)" opacity="0.5">
      <path id="Caminho_178" data-name="Caminho 178" d="M322.119,391.118a18.233,18.233,0,0,1-4.41,11.921c-.14.164-.286.326-.434.485q-.11.124-.226.242a17.97,17.97,0,0,1-1.956,1.775l-.048.035a17.9,17.9,0,0,1-3.475,2.134h0a18.043,18.043,0,0,1-1.951.781l-.245.078c-.151.051-.307.1-.461.14l-.062.019a18.408,18.408,0,0,1-10.116,0h-.027c-.269-.078-.539-.159-.787-.248l-.229-.081a17.767,17.767,0,0,1-2.532-1.121l-.051-.027a18.39,18.39,0,0,1-3.589-2.54l-.089-.084a17.126,17.126,0,0,1-1.565-1.616c-.065-.073-.127-.148-.189-.224-.119-.14-.232-.286-.345-.431a18.32,18.32,0,1,1,32.787-11.24Z" transform="translate(-285.48 -372.798)" fill="#c0bccf"/>
      <path id="Caminho_179" data-name="Caminho 179" d="M327.553,408.243l-1.39-.625a5.515,5.515,0,0,0,.027-.636,5,5,0,0,0,0-.539c-.137-1.417-1.04-2.651-1.678-3.947a11.21,11.21,0,0,1-1.1-3.772c-.17-1.616,0-3.292-.593-4.812a8.682,8.682,0,0,0-2.457-3.155,12.471,12.471,0,0,0-3.947-2.5,6.98,6.98,0,0,0-4.7-.127,10.143,10.143,0,0,0-3.386,2.446,11.384,11.384,0,0,0-1.913,2.177,9.415,9.415,0,0,0-1.078,3.292,50.363,50.363,0,0,0-.663,5.5c-.105,1.538-.269,3.284-1.584,4.227-.641.461-1.544.719-1.837,1.417a1.449,1.449,0,0,0-.1.66,2.424,2.424,0,0,0,.04.558c.019.108.04.213.067.321a23.643,23.643,0,0,0-.948,2.877c-.2.727-.377,1.441-.539,2.134h.668l2.511.059h.035l2.694.062h.013l2.511.059h.062l.725.051h.237l10.041.232h.054l.668.016h.234l2.01.046h0l2.963.067h.022l2.231.054h.7l-.119-2.338C328.526,408.466,327.553,408.243,327.553,408.243Zm-11.28-.286c0,1.983-2.123,4.41-2.123,4.41l-2.136-2.91.078-.113,2.058,2.8s2.123-2.425,2.123-4.41a2.335,2.335,0,0,1,.17-.291l.048.151A2.867,2.867,0,0,0,316.273,407.957Zm3.265,7.78a1.622,1.622,0,0,0-.019-.3c-.019-.1-.016-.189-.03-.286s-.024-.191-.038-.288-.032-.191-.051-.288-.038-.191-.059-.288a.45.45,0,0,0-.022-.1q-.044-.19-.1-.38c-.035-.127-.057-.2-.089-.3a.415.415,0,0,0-.043-.135c-.016-.043-.046-.145-.07-.218l-.048-.14c-.022-.062-.043-.127-.067-.189-.04-.113-.084-.224-.127-.337s-.089-.224-.135-.334c-.092-.226-.191-.45-.291-.676-.391-.873-.83-1.732-1.234-2.584a13.746,13.746,0,0,1-.577-1.369l-.051.067a2.863,2.863,0,0,0-.218.364c0,1.983-2.123,4.41-2.123,4.41l-2.136-2.91-1.87,2.694a2.18,2.18,0,0,0-.749,1.245c-.059.175-.116.369-.17.571-.038.137-.073.269-.105.423-.019.073-.035.146-.051.221l-.049.229v.035c-.032.156-.065.318-.094.482s-.065.353-.094.539q-.032.175-.057.348c-.038.224-.07.45-.1.676-.019.132-.038.269-.054.391l-.065.5c.137.412.291.808.45,1.223a1.923,1.923,0,0,1,.175.692,19.635,19.635,0,0,0,10.116,0,.089.089,0,0,1,0-.024,2.812,2.812,0,0,1-.065-.687h0a17.756,17.756,0,0,1,.269-1.929,6.593,6.593,0,0,0,.051-.948v-.113c-.008-.1-.011-.194-.013-.283Zm0,0a1.622,1.622,0,0,0-.019-.3c-.019-.1-.016-.189-.03-.286s-.024-.191-.038-.288-.032-.191-.051-.288-.038-.191-.059-.288a.45.45,0,0,0-.022-.1q-.044-.19-.1-.38c-.035-.127-.057-.2-.089-.3a.415.415,0,0,0-.043-.135c-.016-.043-.046-.145-.07-.218l-.048-.14c-.022-.062-.043-.127-.067-.189-.04-.113-.084-.224-.127-.337s-.089-.224-.135-.334c-.092-.226-.191-.45-.291-.676-.391-.873-.83-1.732-1.234-2.584a13.746,13.746,0,0,1-.577-1.369l-.051.067a2.863,2.863,0,0,0-.218.364c0,1.983-2.123,4.41-2.123,4.41l-2.136-2.91-1.87,2.694a2.18,2.18,0,0,0-.749,1.245c-.059.175-.116.369-.17.571-.038.137-.073.269-.105.423-.019.073-.035.146-.051.221l-.049.229v.035c-.032.156-.065.318-.094.482s-.065.353-.094.539q-.032.175-.057.348c-.038.224-.07.45-.1.676-.019.132-.038.269-.054.391l-.065.5c.137.412.291.808.45,1.223a1.923,1.923,0,0,1,.175.692,19.635,19.635,0,0,0,10.116,0,.089.089,0,0,1,0-.024,2.812,2.812,0,0,1-.065-.687h0a17.756,17.756,0,0,1,.269-1.929,6.593,6.593,0,0,0,.051-.948v-.113c-.008-.1-.011-.194-.013-.283Zm0,0a1.622,1.622,0,0,0-.019-.3c-.019-.1-.016-.189-.03-.286s-.024-.191-.038-.288-.032-.191-.051-.288-.038-.191-.059-.288a.45.45,0,0,0-.022-.1q-.044-.19-.1-.38c-.035-.127-.057-.2-.089-.3a.415.415,0,0,0-.043-.135c-.016-.043-.046-.145-.07-.218l-.048-.14c-.022-.062-.043-.127-.067-.189-.04-.113-.084-.224-.127-.337s-.089-.224-.135-.334c-.092-.226-.191-.45-.291-.676-.391-.873-.83-1.732-1.234-2.584a13.746,13.746,0,0,1-.577-1.369l-.051.067a2.863,2.863,0,0,0-.218.364c0,1.983-2.123,4.41-2.123,4.41l-2.136-2.91-1.87,2.694a2.18,2.18,0,0,0-.749,1.245c-.059.175-.116.369-.17.571-.038.137-.073.269-.105.423-.019.073-.035.146-.051.221l-.049.229v.035c-.032.156-.065.318-.094.482s-.065.353-.094.539q-.032.175-.057.348c-.038.224-.07.45-.1.676-.019.132-.038.269-.054.391l-.065.5c.137.412.291.808.45,1.223a1.923,1.923,0,0,1,.175.692,19.635,19.635,0,0,0,10.116,0,.089.089,0,0,1,0-.024,2.812,2.812,0,0,1-.065-.687h0a17.756,17.756,0,0,1,.269-1.929,6.593,6.593,0,0,0,.051-.948v-.113c-.008-.1-.011-.194-.013-.283Zm0,0a1.622,1.622,0,0,0-.019-.3c-.019-.1-.016-.189-.03-.286s-.024-.191-.038-.288-.032-.191-.051-.288-.038-.191-.059-.288a.45.45,0,0,0-.022-.1q-.044-.19-.1-.38c-.035-.127-.057-.2-.089-.3a.415.415,0,0,0-.043-.135c-.016-.043-.046-.145-.07-.218l-.048-.14c-.022-.062-.043-.127-.067-.189-.04-.113-.084-.224-.127-.337s-.089-.224-.135-.334c-.092-.226-.191-.45-.291-.676-.391-.873-.83-1.732-1.234-2.584a13.746,13.746,0,0,1-.577-1.369l-.051.067a2.863,2.863,0,0,0-.218.364c0,1.983-2.123,4.41-2.123,4.41l-2.136-2.91-1.87,2.694a2.18,2.18,0,0,0-.749,1.245c-.059.175-.116.369-.17.571-.038.137-.073.269-.105.423-.019.073-.035.146-.051.221l-.049.229v.035c-.032.156-.065.318-.094.482s-.065.353-.094.539q-.032.175-.057.348c-.038.224-.07.45-.1.676-.019.132-.038.269-.054.391l-.065.5c.137.412.291.808.45,1.223a1.923,1.923,0,0,1,.175.692,19.635,19.635,0,0,0,10.116,0,.089.089,0,0,1,0-.024,2.812,2.812,0,0,1-.065-.687h0a17.756,17.756,0,0,1,.269-1.929,6.593,6.593,0,0,0,.051-.948v-.113c-.008-.1-.011-.194-.013-.283Z" transform="translate(-295.927 -383.742)" fill="url(#linear-gradient-2)"/>
      <rect id="Retângulo_20" data-name="Retângulo 20" width="12.393" height="8.352" transform="translate(11.315 13.204)" fill="#493545"/>
      <path id="Caminho_180" data-name="Caminho 180" d="M341.569,434.915l-5.186,7.306-5.42-.471s-7.072.469-2.357-4.949a11.63,11.63,0,0,0,3.166-6.326,4.9,4.9,0,0,0-.337-2.629l5.892-.706a4.4,4.4,0,0,0-.1,2.46C337.967,432.66,341.569,434.915,341.569,434.915Z" transform="translate(-315.803 -412.5)" fill="#c77485"/>
      <path id="Caminho_181" data-name="Caminho 181" d="M349.285,429.577a5.889,5.889,0,0,1-5.458.878,4.9,4.9,0,0,0-.337-2.629l5.892-.706A4.4,4.4,0,0,0,349.285,429.577Z" transform="translate(-327.862 -412.485)" opacity="0.1"/>
      <circle id="Elipse_52" data-name="Elipse 52" cx="5.892" cy="5.892" r="5.892" transform="translate(11.978 6.267)" fill="#c77485"/>
      <path id="Caminho_182" data-name="Caminho 182" d="M337.142,450.982l-.137-.539-.119-.474-.175-.7-.032-.129-.027-.108s.14-.423-.784-.286l-.172.03c-.145.03-.315.07-.509.124l-.175.054-.232.073h0a5.052,5.052,0,0,0-1.956,1.18,4.4,4.4,0,0,0-.655.792c-.019.027-.032.051-.048.073a2.55,2.55,0,0,0-.17.313c0,2.123-2.123,4.715-2.123,4.715l-2.072-2.993-.04-.059-.493-.717-.175-.232-.059-.081-1.078-1.447-.269-.361-.089-.121-.132-.175-.31-.412-1.212.709-1.616.943-.943,6.129v.17l.03.506.2,3.33v.046l-.345,1.379.051.027a17.763,17.763,0,0,0,2.532,1.121l.229.081c.269.089.523.17.787.248a.961.961,0,0,1,.022.121v-.116a18.409,18.409,0,0,0,10.116,0l.062-.019c.154-.043.31-.089.461-.14l.245-.078a18.046,18.046,0,0,0,1.951-.781l.226-4.822.162-3.478v-.2Z" transform="translate(-311.591 -428.265)" opacity="0.1"/>
      <path id="Caminho_183" data-name="Caminho 183" d="M335.363,460.587a1.86,1.86,0,0,0-.019-.323c-.019-.108-.016-.2-.03-.3s-.024-.2-.038-.307-.032-.2-.051-.307-.038-.2-.059-.307a.462.462,0,0,0-.022-.1c-.03-.135-.062-.269-.1-.407s-.057-.218-.089-.326a.459.459,0,0,0-.043-.143c-.016-.046-.046-.156-.07-.234l-.048-.151c-.022-.067-.043-.135-.067-.2-.04-.121-.084-.24-.127-.361s-.089-.24-.135-.358c-.092-.242-.191-.482-.291-.722-.391-.932-.83-1.851-1.234-2.761a15.265,15.265,0,0,1-.577-1.463l-.051.073a3.112,3.112,0,0,0-.218.388c0,2.12-2.123,4.715-2.123,4.715l-2.136-3.112-1.87,2.875a2.348,2.348,0,0,0-.749,1.331c-.059.189-.116.393-.17.612-.038.145-.073.3-.105.453-.019.078-.035.156-.051.237l-.048.245v.038c-.032.167-.065.339-.094.515s-.065.377-.094.568q-.032.186-.057.372c-.038.24-.07.482-.1.722-.019.14-.038.269-.054.418l-.065.539c.137.442.291.878.45,1.307a2.172,2.172,0,0,1,.175.741,18.409,18.409,0,0,0,10.116,0,.105.105,0,0,1,0-.027,3.208,3.208,0,0,1-.065-.735h0a20.2,20.2,0,0,1,.269-2.061,7.545,7.545,0,0,0,.051-1.013v-.121C335.368,460.781,335.366,460.684,335.363,460.587Zm0,0a1.86,1.86,0,0,0-.019-.323c-.019-.108-.016-.2-.03-.3s-.024-.2-.038-.307-.032-.2-.051-.307-.038-.2-.059-.307a.462.462,0,0,0-.022-.1c-.03-.135-.062-.269-.1-.407s-.057-.218-.089-.326a.459.459,0,0,0-.043-.143c-.016-.046-.046-.156-.07-.234l-.048-.151c-.022-.067-.043-.135-.067-.2-.04-.121-.084-.24-.127-.361s-.089-.24-.135-.358c-.092-.242-.191-.482-.291-.722-.391-.932-.83-1.851-1.234-2.761a15.265,15.265,0,0,1-.577-1.463l-.051.073a3.112,3.112,0,0,0-.218.388c0,2.12-2.123,4.715-2.123,4.715l-2.136-3.112-1.87,2.875a2.348,2.348,0,0,0-.749,1.331c-.059.189-.116.393-.17.612-.038.145-.073.3-.105.453-.019.078-.035.156-.051.237l-.048.245v.038c-.032.167-.065.339-.094.515s-.065.377-.094.568q-.032.186-.057.372c-.038.24-.07.482-.1.722-.019.14-.038.269-.054.418l-.065.539c.137.442.291.878.45,1.307a2.172,2.172,0,0,1,.175.741,18.409,18.409,0,0,0,10.116,0,.105.105,0,0,1,0-.027,3.208,3.208,0,0,1-.065-.735h0a20.2,20.2,0,0,1,.269-2.061,7.545,7.545,0,0,0,.051-1.013v-.121C335.368,460.781,335.366,460.684,335.363,460.587Zm0,0a1.86,1.86,0,0,0-.019-.323c-.019-.108-.016-.2-.03-.3s-.024-.2-.038-.307-.032-.2-.051-.307-.038-.2-.059-.307a.462.462,0,0,0-.022-.1c-.03-.135-.062-.269-.1-.407s-.057-.218-.089-.326a.459.459,0,0,0-.043-.143c-.016-.046-.046-.156-.07-.234l-.048-.151c-.022-.067-.043-.135-.067-.2-.04-.121-.084-.24-.127-.361s-.089-.24-.135-.358c-.092-.242-.191-.482-.291-.722-.391-.932-.83-1.851-1.234-2.761a15.265,15.265,0,0,1-.577-1.463l-.051.073a3.112,3.112,0,0,0-.218.388c0,2.12-2.123,4.715-2.123,4.715l-2.136-3.112-1.87,2.875a2.348,2.348,0,0,0-.749,1.331c-.059.189-.116.393-.17.612-.038.145-.073.3-.105.453-.019.078-.035.156-.051.237l-.048.245v.038c-.032.167-.065.339-.094.515s-.065.377-.094.568q-.032.186-.057.372c-.038.24-.07.482-.1.722-.019.14-.038.269-.054.418l-.065.539c.137.442.291.878.45,1.307a2.172,2.172,0,0,1,.175.741,18.409,18.409,0,0,0,10.116,0,.105.105,0,0,1,0-.027,3.208,3.208,0,0,1-.065-.735h0a20.2,20.2,0,0,1,.269-2.061,7.545,7.545,0,0,0,.051-1.013v-.121C335.368,460.781,335.366,460.684,335.363,460.587Zm2.856-5.057-.962-3.839-.164-.657-.046-.18h0l-.234-.938a.178.178,0,0,0,0-.024h0a.216.216,0,0,0-.019-.121c-.035-.07-.124-.143-.331-.162a1.68,1.68,0,0,0-.237,0h0a4.106,4.106,0,0,0-.692.129c-.11.03-.229.062-.356.1l-.232.073h-.022a5.139,5.139,0,0,0-1.7.943,4.579,4.579,0,0,0-.862.954l-.051.073a3.118,3.118,0,0,0-.218.388c0,2.12-2.123,4.715-2.123,4.715l-2.136-3.112-.121-.175-.022-.03-.31-.455-.234-.312-.062-.081-1.1-1.474h0l-.35-.477v-.016l-.121-.164-.232-.307-.808.471-2.021,1.177-.932,6.064v.065l.027.442.2,3.376v.191l-.3,1.215a17.759,17.759,0,0,0,2.532,1.121l.229.081c.269.089.523.17.787.248a.955.955,0,0,1,.022.121v-.116a18.409,18.409,0,0,0,10.116,0l.062-.019c.154-.043.31-.089.461-.14l.245-.078a18.043,18.043,0,0,0,1.951-.781h0l.224-4.817.162-3.44Zm-13.249,9.3a.961.961,0,0,1,.022.121v-.116Zm10.394-4.246a1.86,1.86,0,0,0-.019-.323c-.019-.108-.016-.2-.03-.3s-.024-.2-.038-.307-.032-.2-.051-.307-.038-.2-.059-.307a.462.462,0,0,0-.022-.1c-.03-.135-.062-.269-.1-.407s-.057-.218-.089-.326a.459.459,0,0,0-.043-.143c-.016-.046-.046-.156-.07-.234l-.048-.151c-.022-.067-.043-.135-.067-.2-.04-.121-.084-.24-.127-.361s-.089-.24-.135-.358c-.092-.242-.191-.482-.291-.722-.391-.932-.83-1.851-1.234-2.761a15.265,15.265,0,0,1-.577-1.463l-.051.073a3.112,3.112,0,0,0-.218.388c0,2.12-2.123,4.715-2.123,4.715l-2.136-3.112-1.87,2.875a2.348,2.348,0,0,0-.749,1.331c-.059.189-.116.393-.17.612-.038.145-.073.3-.105.453-.019.078-.035.156-.051.237l-.048.245v.038c-.032.167-.065.339-.094.515s-.065.377-.094.568q-.032.186-.057.372c-.038.24-.07.482-.1.722-.019.14-.038.269-.054.418l-.065.539c.137.442.291.878.45,1.307a2.172,2.172,0,0,1,.175.741,18.409,18.409,0,0,0,10.116,0,.105.105,0,0,1,0-.027,3.208,3.208,0,0,1-.065-.735h0a20.2,20.2,0,0,1,.269-2.061,7.545,7.545,0,0,0,.051-1.013v-.121C335.368,460.781,335.366,460.684,335.363,460.587Zm0,0a1.86,1.86,0,0,0-.019-.323c-.019-.108-.016-.2-.03-.3s-.024-.2-.038-.307-.032-.2-.051-.307-.038-.2-.059-.307a.462.462,0,0,0-.022-.1c-.03-.135-.062-.269-.1-.407s-.057-.218-.089-.326a.459.459,0,0,0-.043-.143c-.016-.046-.046-.156-.07-.234l-.048-.151c-.022-.067-.043-.135-.067-.2-.04-.121-.084-.24-.127-.361s-.089-.24-.135-.358c-.092-.242-.191-.482-.291-.722-.391-.932-.83-1.851-1.234-2.761a15.265,15.265,0,0,1-.577-1.463l-.051.073a3.112,3.112,0,0,0-.218.388c0,2.12-2.123,4.715-2.123,4.715l-2.136-3.112-1.87,2.875a2.348,2.348,0,0,0-.749,1.331c-.059.189-.116.393-.17.612-.038.145-.073.3-.105.453-.019.078-.035.156-.051.237l-.048.245v.038c-.032.167-.065.339-.094.515s-.065.377-.094.568q-.032.186-.057.372c-.038.24-.07.482-.1.722-.019.14-.038.269-.054.418l-.065.539c.137.442.291.878.45,1.307a2.172,2.172,0,0,1,.175.741,18.409,18.409,0,0,0,10.116,0,.105.105,0,0,1,0-.027,3.208,3.208,0,0,1-.065-.735h0a20.2,20.2,0,0,1,.269-2.061,7.545,7.545,0,0,0,.051-1.013v-.121C335.368,460.781,335.366,460.684,335.363,460.587Zm0,0a1.86,1.86,0,0,0-.019-.323c-.019-.108-.016-.2-.03-.3s-.024-.2-.038-.307-.032-.2-.051-.307-.038-.2-.059-.307a.462.462,0,0,0-.022-.1c-.03-.135-.062-.269-.1-.407s-.057-.218-.089-.326a.459.459,0,0,0-.043-.143c-.016-.046-.046-.156-.07-.234l-.048-.151c-.022-.067-.043-.135-.067-.2-.04-.121-.084-.24-.127-.361s-.089-.24-.135-.358c-.092-.242-.191-.482-.291-.722-.391-.932-.83-1.851-1.234-2.761a15.265,15.265,0,0,1-.577-1.463l-.051.073a3.112,3.112,0,0,0-.218.388c0,2.12-2.123,4.715-2.123,4.715l-2.136-3.112-1.87,2.875a2.348,2.348,0,0,0-.749,1.331c-.059.189-.116.393-.17.612-.038.145-.073.3-.105.453-.019.078-.035.156-.051.237l-.048.245v.038c-.032.167-.065.339-.094.515s-.065.377-.094.568q-.032.186-.057.372c-.038.24-.07.482-.1.722-.019.14-.038.269-.054.418l-.065.539c.137.442.291.878.45,1.307a2.172,2.172,0,0,1,.175.741,18.409,18.409,0,0,0,10.116,0,.105.105,0,0,1,0-.027,3.208,3.208,0,0,1-.065-.735h0a20.2,20.2,0,0,1,.269-2.061,7.545,7.545,0,0,0,.051-1.013v-.121C335.368,460.781,335.366,460.684,335.363,460.587Zm0,0a1.86,1.86,0,0,0-.019-.323c-.019-.108-.016-.2-.03-.3s-.024-.2-.038-.307-.032-.2-.051-.307-.038-.2-.059-.307a.462.462,0,0,0-.022-.1c-.03-.135-.062-.269-.1-.407s-.057-.218-.089-.326a.459.459,0,0,0-.043-.143c-.016-.046-.046-.156-.07-.234l-.048-.151c-.022-.067-.043-.135-.067-.2-.04-.121-.084-.24-.127-.361s-.089-.24-.135-.358c-.092-.242-.191-.482-.291-.722-.391-.932-.83-1.851-1.234-2.761a15.265,15.265,0,0,1-.577-1.463l-.051.073a3.112,3.112,0,0,0-.218.388c0,2.12-2.123,4.715-2.123,4.715l-2.136-3.112-1.87,2.875a2.348,2.348,0,0,0-.749,1.331c-.059.189-.116.393-.17.612-.038.145-.073.3-.105.453-.019.078-.035.156-.051.237l-.048.245v.038c-.032.167-.065.339-.094.515s-.065.377-.094.568q-.032.186-.057.372c-.038.24-.07.482-.1.722-.019.14-.038.269-.054.418l-.065.539c.137.442.291.878.45,1.307a2.172,2.172,0,0,1,.175.741,18.409,18.409,0,0,0,10.116,0,.105.105,0,0,1,0-.027,3.208,3.208,0,0,1-.065-.735h0a20.2,20.2,0,0,1,.269-2.061,7.545,7.545,0,0,0,.051-1.013v-.121C335.368,460.781,335.366,460.684,335.363,460.587Zm0,0a1.86,1.86,0,0,0-.019-.323c-.019-.108-.016-.2-.03-.3s-.024-.2-.038-.307-.032-.2-.051-.307-.038-.2-.059-.307a.462.462,0,0,0-.022-.1c-.03-.135-.062-.269-.1-.407s-.057-.218-.089-.326a.459.459,0,0,0-.043-.143c-.016-.046-.046-.156-.07-.234l-.048-.151c-.022-.067-.043-.135-.067-.2-.04-.121-.084-.24-.127-.361s-.089-.24-.135-.358c-.092-.242-.191-.482-.291-.722-.391-.932-.83-1.851-1.234-2.761a15.265,15.265,0,0,1-.577-1.463l-.051.073a3.112,3.112,0,0,0-.218.388c0,2.12-2.123,4.715-2.123,4.715l-2.136-3.112-1.87,2.875a2.348,2.348,0,0,0-.749,1.331c-.059.189-.116.393-.17.612-.038.145-.073.3-.105.453-.019.078-.035.156-.051.237l-.048.245v.038c-.032.167-.065.339-.094.515s-.065.377-.094.568q-.032.186-.057.372c-.038.24-.07.482-.1.722-.019.14-.038.269-.054.418l-.065.539c.137.442.291.878.45,1.307a2.172,2.172,0,0,1,.175.741,18.409,18.409,0,0,0,10.116,0,.105.105,0,0,1,0-.027,3.208,3.208,0,0,1-.065-.735h0a20.2,20.2,0,0,1,.269-2.061,7.545,7.545,0,0,0,.051-1.013v-.121C335.368,460.781,335.366,460.684,335.363,460.587Zm0,0a1.86,1.86,0,0,0-.019-.323c-.019-.108-.016-.2-.03-.3s-.024-.2-.038-.307-.032-.2-.051-.307-.038-.2-.059-.307a.462.462,0,0,0-.022-.1c-.03-.135-.062-.269-.1-.407s-.057-.218-.089-.326a.459.459,0,0,0-.043-.143c-.016-.046-.046-.156-.07-.234l-.048-.151c-.022-.067-.043-.135-.067-.2-.04-.121-.084-.24-.127-.361s-.089-.24-.135-.358c-.092-.242-.191-.482-.291-.722-.391-.932-.83-1.851-1.234-2.761a15.265,15.265,0,0,1-.577-1.463l-.051.073a3.112,3.112,0,0,0-.218.388c0,2.12-2.123,4.715-2.123,4.715l-2.136-3.112-1.87,2.875a2.348,2.348,0,0,0-.749,1.331c-.059.189-.116.393-.17.612-.038.145-.073.3-.105.453-.019.078-.035.156-.051.237l-.048.245v.038c-.032.167-.065.339-.094.515s-.065.377-.094.568q-.032.186-.057.372c-.038.24-.07.482-.1.722-.019.14-.038.269-.054.418l-.065.539c.137.442.291.878.45,1.307a2.172,2.172,0,0,1,.175.741,18.409,18.409,0,0,0,10.116,0,.105.105,0,0,1,0-.027,3.208,3.208,0,0,1-.065-.735h0a20.2,20.2,0,0,1,.269-2.061,7.545,7.545,0,0,0,.051-1.013v-.121C335.368,460.781,335.366,460.684,335.363,460.587Zm0,0a1.86,1.86,0,0,0-.019-.323c-.019-.108-.016-.2-.03-.3s-.024-.2-.038-.307-.032-.2-.051-.307-.038-.2-.059-.307a.462.462,0,0,0-.022-.1c-.03-.135-.062-.269-.1-.407s-.057-.218-.089-.326a.459.459,0,0,0-.043-.143c-.016-.046-.046-.156-.07-.234l-.048-.151c-.022-.067-.043-.135-.067-.2-.04-.121-.084-.24-.127-.361s-.089-.24-.135-.358c-.092-.242-.191-.482-.291-.722-.391-.932-.83-1.851-1.234-2.761a15.265,15.265,0,0,1-.577-1.463l-.051.073a3.112,3.112,0,0,0-.218.388c0,2.12-2.123,4.715-2.123,4.715l-2.136-3.112-1.87,2.875a2.348,2.348,0,0,0-.749,1.331c-.059.189-.116.393-.17.612-.038.145-.073.3-.105.453-.019.078-.035.156-.051.237l-.048.245v.038c-.032.167-.065.339-.094.515s-.065.377-.094.568q-.032.186-.057.372c-.038.24-.07.482-.1.722-.019.14-.038.269-.054.418l-.065.539c.137.442.291.878.45,1.307a2.172,2.172,0,0,1,.175.741,18.409,18.409,0,0,0,10.116,0,.105.105,0,0,1,0-.027,3.208,3.208,0,0,1-.065-.735h0a20.2,20.2,0,0,1,.269-2.061,7.545,7.545,0,0,0,.051-1.013v-.121C335.368,460.781,335.366,460.684,335.363,460.587Zm0,0a1.86,1.86,0,0,0-.019-.323c-.019-.108-.016-.2-.03-.3s-.024-.2-.038-.307-.032-.2-.051-.307-.038-.2-.059-.307a.462.462,0,0,0-.022-.1c-.03-.135-.062-.269-.1-.407s-.057-.218-.089-.326a.459.459,0,0,0-.043-.143c-.016-.046-.046-.156-.07-.234l-.048-.151c-.022-.067-.043-.135-.067-.2-.04-.121-.084-.24-.127-.361s-.089-.24-.135-.358c-.092-.242-.191-.482-.291-.722-.391-.932-.83-1.851-1.234-2.761a15.265,15.265,0,0,1-.577-1.463l-.051.073a3.112,3.112,0,0,0-.218.388c0,2.12-2.123,4.715-2.123,4.715l-2.136-3.112-1.87,2.875a2.348,2.348,0,0,0-.749,1.331c-.059.189-.116.393-.17.612-.038.145-.073.3-.105.453-.019.078-.035.156-.051.237l-.048.245v.038c-.032.167-.065.339-.094.515s-.065.377-.094.568q-.032.186-.057.372c-.038.24-.07.482-.1.722-.019.14-.038.269-.054.418l-.065.539c.137.442.291.878.45,1.307a2.172,2.172,0,0,1,.175.741,18.409,18.409,0,0,0,10.116,0,.105.105,0,0,1,0-.027,3.208,3.208,0,0,1-.065-.735h0a20.2,20.2,0,0,1,.269-2.061,7.545,7.545,0,0,0,.051-1.013v-.121C335.368,460.781,335.366,460.684,335.363,460.587Z" transform="translate(-311.752 -428.912)" fill="#fff"/>
      <path id="Caminho_184" data-name="Caminho 184" d="M313.469,453.877l-.181-.024a6.567,6.567,0,0,1-.808-.162l-.1-.027c-.657-.186-1.377-.52-1.538-1.107a1.048,1.048,0,0,1,.016-.574,4.922,4.922,0,0,1,.366-.927v-.016a1.287,1.287,0,0,1,.067-.121,2.694,2.694,0,0,1,.973-1.059l-.323.051-2.737.445-4.243.684s-.754-.151-1.781,2.678a.438.438,0,0,1-.035.105c-.248.692-.509,1.557-.779,2.637-.186.749-.356,1.484-.512,2.2-.046.216-.092.428-.135.638a17.118,17.118,0,0,0,1.565,1.616l.089.084a18.389,18.389,0,0,0,3.589,2.54l.051.027a17.767,17.767,0,0,0,2.532,1.121l.229.081c.048-.5.1-1.051.167-1.616a.46.46,0,0,1,.022-.17l.065-.539c.016-.137.035-.269.054-.418.032-.24.065-.482.1-.722q.024-.186.057-.372c.03-.191.062-.383.094-.568s.062-.348.094-.515v-.038l.048-.245c.016-.081.032-.159.051-.237.032-.154.067-.307.105-.453.054-.218.11-.423.17-.612a2.3,2.3,0,0,1,.749-1.331l1.87-2.875.078-.121.035-.054Z" transform="translate(-297.345 -429.099)" opacity="0.1"/>
      <path id="Caminho_185" data-name="Caminho 185" d="M312.8,453.9l-1.986,3.05a2.278,2.278,0,0,0-.735,1.29c-.062.2-.124.418-.183.647a32.209,32.209,0,0,0-.609,3.527.419.419,0,0,1-.022.162c-.092.749-.167,1.484-.229,2.134a17.766,17.766,0,0,1-2.532-1.121l-.051-.027a18.39,18.39,0,0,1-3.589-2.54l-.089-.084a17.115,17.115,0,0,1-1.565-1.616c-.065-.073-.127-.148-.189-.224.03-.14.059-.269.092-.42.154-.714.323-1.447.509-2.193a26.55,26.55,0,0,1,.916-3.017.824.824,0,0,1,.035-.086c.954-2.454,1.641-2.317,1.641-2.317l4.48-.722,2.829-.458-.089.051a2.869,2.869,0,0,0-.779.83l-.078.132c-.032.051-.062.108-.094.164a4.771,4.771,0,0,0-.372.943.991.991,0,0,0,.065.77,2.566,2.566,0,0,0,1.662.964l.105.027A6.754,6.754,0,0,0,312.8,453.9Z" transform="translate(-296.833 -429.114)" fill="#444176"/>
      <path id="Caminho_186" data-name="Caminho 186" d="M379.867,457.479l-.11-2.392c.471-3.772-.471-4.006-.471-4.006l-1.121-.539h-.03l-4.507-2.185-.175-.086-.054-.024h0l-.587-.286h0l-.372-.181-.7-.337-.234-.113v.935c0,.269.024.585.046.951.048.921.137,2.155.3,3.61.089.843.2,1.765.342,2.753.084.585.143,1.167.181,1.735a30.532,30.532,0,0,1-.178,5.738l.245-.078a18.049,18.049,0,0,0,1.951-.781h0a17.906,17.906,0,0,0,3.475-2.134l.048-.035a17.973,17.973,0,0,0,1.956-1.775Z" transform="translate(-348.333 -427.251)" opacity="0.1"/>
      <path id="Caminho_187" data-name="Caminho 187" d="M380.732,457.442l-.11-2.4c.471-3.772-.471-4.006-.471-4.006l-1.347-.652h-.027l-4.521-2.193-.207-.1-.04-.019-.331-.162-.439-.213-.867-.42v.383h0v.474c0,.269.024.622.048,1.024.046.859.127,1.986.269,3.324.1.919.218,1.94.377,3.039q.124.881.178,1.743a30.49,30.49,0,0,1-.167,5.658,18.055,18.055,0,0,0,1.951-.781h0a17.9,17.9,0,0,0,3.475-2.134l.048-.035a17.97,17.97,0,0,0,1.956-1.775q.119-.119.226-.242Z" transform="translate(-348.961 -427.214)" fill="#444176"/>
      <path id="Caminho_188" data-name="Caminho 188" d="M320.447,391.382a3.919,3.919,0,0,0-.369,1.347c-.288,1.053-1.431,1.713-1.692,2.775-.154.62.024,1.277-.081,1.907-.191,1.161-1.253,1.948-1.845,2.963a4,4,0,0,0-.245,3.475,5.573,5.573,0,0,1,.342.878,3.209,3.209,0,0,1-.084,1.347,4.269,4.269,0,0,0,.054,2.88,2.756,2.756,0,0,0,2.018,1.293,7.841,7.841,0,0,0,2.47-.113,7.147,7.147,0,0,0,2.581-.754l-2.918-7.042a5.878,5.878,0,0,1-.593-2.217,4.873,4.873,0,0,1,.364-1.654,14.333,14.333,0,0,1,2.425-4.189c.423.49.391,1.237.744,1.781a2.81,2.81,0,0,0,1.2.9,39.807,39.807,0,0,0,4.254,1.778.558.558,0,0,1,.415.83l-1.1,4.537a3.519,3.519,0,0,0,.167,2.964c.622.808,2.026,1.191,2.034,2.233a3.574,3.574,0,0,0,0,.5c.073.488.652.722,1.145.746a3.413,3.413,0,0,0,3.424-2.794c.269-1.783-.911-3.427-1.4-5.165-.83-2.923.269-6.353-1.361-8.92-1.32-2.083-3.726-2.648-6.01-2.907C324.782,390.565,321.576,389.892,320.447,391.382Z" transform="translate(-307.726 -385.686)" opacity="0.1"/>
      <path id="Caminho_189" data-name="Caminho 189" d="M320.447,390.382a3.919,3.919,0,0,0-.369,1.347c-.288,1.053-1.431,1.713-1.692,2.775-.154.62.024,1.277-.081,1.907-.191,1.161-1.253,1.948-1.845,2.963a4,4,0,0,0-.245,3.475,5.576,5.576,0,0,1,.342.878,3.209,3.209,0,0,1-.084,1.347,4.269,4.269,0,0,0,.054,2.88,2.756,2.756,0,0,0,2.018,1.293,7.842,7.842,0,0,0,2.47-.113,7.147,7.147,0,0,0,2.581-.754l-2.918-7.042a5.878,5.878,0,0,1-.593-2.217,4.873,4.873,0,0,1,.364-1.654,14.333,14.333,0,0,1,2.425-4.189c.423.49.391,1.237.744,1.781a2.81,2.81,0,0,0,1.2.9,39.807,39.807,0,0,0,4.254,1.778.558.558,0,0,1,.415.83l-1.1,4.537a3.519,3.519,0,0,0,.167,2.964c.622.808,2.026,1.191,2.034,2.233a3.573,3.573,0,0,0,0,.5c.073.488.652.722,1.145.746a3.413,3.413,0,0,0,3.424-2.794c.269-1.783-.911-3.427-1.4-5.165-.83-2.923.269-6.353-1.361-8.92-1.32-2.083-3.726-2.648-6.01-2.907C324.782,389.565,321.576,388.892,320.447,390.382Z" transform="translate(-307.726 -384.955)" fill="#493545"/>
    </g>
    <g id="Grupo_4" data-name="Grupo 4" transform="translate(65.272 158.929)" opacity="0.5">
      <path id="Caminho_190" data-name="Caminho 190" d="M322.119,632.118a18.234,18.234,0,0,1-4.41,11.921c-.14.164-.286.326-.434.485q-.11.124-.226.242a17.965,17.965,0,0,1-1.956,1.775l-.048.035a17.906,17.906,0,0,1-3.475,2.134h0a18.049,18.049,0,0,1-1.951.781l-.245.078c-.151.051-.307.1-.461.14l-.062.019a18.409,18.409,0,0,1-10.116,0h-.027c-.269-.078-.539-.159-.787-.248l-.229-.081a17.76,17.76,0,0,1-2.532-1.121l-.051-.027a18.389,18.389,0,0,1-3.589-2.541l-.089-.083a17.114,17.114,0,0,1-1.565-1.616c-.065-.073-.127-.148-.189-.224-.119-.14-.232-.286-.345-.431a18.32,18.32,0,1,1,32.787-11.24Z" transform="translate(-285.48 -613.798)" fill="#c0bccf"/>
      <path id="Caminho_191" data-name="Caminho 191" d="M328.59,653.445l-.11-2.425c.471-3.834-.471-4.073-.471-4.073l-1.347-.663-.027-.013-4.521-2.228-.207-.1-.027-.11s.089-.269-.358-.315a1.641,1.641,0,0,1-.113-.687,2.945,2.945,0,0,1,.741-1.347,5.533,5.533,0,0,0,.886-3.925,9.232,9.232,0,0,0-1.5-3.793l-.086-.127a4.565,4.565,0,0,0,.159-1.191c0-3.1-3.136-5.614-7-5.614-3.5,0-6.42,2.072-6.926,4.774a2.457,2.457,0,0,0-.213.334c-.711,1.331.388,2.325.423,3.653a4.724,4.724,0,0,1-1.078,2.476,2.476,2.476,0,0,0-.348,2.573c.164.253.412.445.56.709.52.919-.345,1.972-.66,2.98a2.847,2.847,0,0,0-.086.358l-2.08.339s-.687-.14-1.641,2.355a.85.85,0,0,0-.035.089,27.315,27.315,0,0,0-.916,3.068q-.279,1.14-.509,2.228c-.032.143-.062.286-.092.428.062.075.124.154.189.226a17.289,17.289,0,0,0,1.565,1.649l.089.086a18.4,18.4,0,0,0,3.589,2.584l.051.027a17.627,17.627,0,0,0,2.532,1.14l.229.081c.269.092.523.172.787.253a.986.986,0,0,1,.022.124v-.119a18.121,18.121,0,0,0,10.116,0l.062-.019c.154-.043.31-.092.461-.143l.245-.078a18.166,18.166,0,0,0,5.426-2.964l.049-.035a18.087,18.087,0,0,0,1.956-1.805q.119-.119.226-.245Z" transform="translate(-296.819 -623.319)" fill="url(#linear-gradient-3)"/>
      <path id="Caminho_192" data-name="Caminho 192" d="M322.031,648.314a4.534,4.534,0,0,1-1.078,2.425,2.4,2.4,0,0,0-.348,2.53c.164.248.412.439.56.7.52.9-.345,1.94-.66,2.931a3.68,3.68,0,0,0,.824,3.354,8.926,8.926,0,0,0,2.888,2.109,25.774,25.774,0,0,0,7.145,2.543,6.84,6.84,0,0,0,3.917-.175,4.165,4.165,0,0,0,2.352-4.58c-.31-1.417-1.347-2.557-1.886-3.9a1.824,1.824,0,0,1-.178-.843,2.848,2.848,0,0,1,.741-1.32,5.388,5.388,0,0,0,.873-3.834,9,9,0,0,0-1.5-3.734,4.089,4.089,0,0,0-1.078-1.185,4.729,4.729,0,0,0-2.015-.609c-2.926-.409-5.957-.857-8.907-1.008a1.911,1.911,0,0,0-2.077,1.008C320.9,646.029,322,647.007,322.031,648.314Z" transform="translate(-310.967 -635.654)" fill="#444176"/>
      <path id="Caminho_193" data-name="Caminho 193" d="M345.427,675.308l-5.552,7.9-5.42-.471s-.178,1.886-2.357-4.949c-1.218-3.823,1.258-2.495,1.746-3.554s1.347-1.994,1.42-2.775a4.9,4.9,0,0,0-.337-2.629l5.892-.706a4.4,4.4,0,0,0-.1,2.46C341.458,673.646,345.427,675.308,345.427,675.308Z" transform="translate(-319.294 -653.485)" fill="#c77485"/>
      <ellipse id="Elipse_53" data-name="Elipse 53" cx="7.005" cy="5.523" rx="7.005" ry="5.523" transform="translate(10.776 4.044)" fill="#444176"/>
      <path id="Caminho_194" data-name="Caminho 194" d="M349.285,670.577a5.889,5.889,0,0,1-5.458.878,4.9,4.9,0,0,0-.337-2.629l5.892-.706A4.4,4.4,0,0,0,349.285,670.577Z" transform="translate(-327.862 -653.485)" opacity="0.1"/>
      <circle id="Elipse_54" data-name="Elipse 54" cx="5.892" cy="5.892" r="5.892" transform="translate(11.978 6.267)" fill="#c77485"/>
      <path id="Caminho_195" data-name="Caminho 195" d="M337.142,691.982l-.137-.539-.119-.474-.175-.7-.032-.129-.027-.108s.14-.423-.784-.286l-.172.03c-.145.03-.315.07-.509.124l-.175.054-.232.073h0a5.051,5.051,0,0,0-1.956,1.18,4.4,4.4,0,0,0-.655.792c-.019.027-.032.051-.048.073a2.541,2.541,0,0,0-.17.313c0,2.123-2.123,4.715-2.123,4.715l-2.072-2.993-.04-.059-.493-.717-.175-.232-.059-.081-1.078-1.447-.269-.361-.089-.121-.132-.175-.31-.412-1.212.709-1.616.943-.943,6.129v.17l.03.506.2,3.33v.046l-.345,1.379.051.027a17.767,17.767,0,0,0,2.532,1.121l.229.081c.269.089.523.17.787.248a.947.947,0,0,1,.022.121v-.116a18.408,18.408,0,0,0,10.116,0l.062-.019c.154-.043.31-.089.461-.14l.245-.078a18.049,18.049,0,0,0,1.951-.781l.226-4.822.162-3.478v-.2Z" transform="translate(-311.591 -669.265)" opacity="0.1"/>
      <path id="Caminho_196" data-name="Caminho 196" d="M335.363,701.587a1.86,1.86,0,0,0-.019-.323c-.019-.108-.016-.2-.03-.3s-.024-.2-.038-.307-.032-.2-.051-.307-.038-.2-.059-.307a.462.462,0,0,0-.022-.1c-.03-.135-.062-.269-.1-.407s-.057-.218-.089-.326a.459.459,0,0,0-.043-.143c-.016-.046-.046-.156-.07-.234l-.048-.151c-.022-.067-.043-.135-.067-.2-.04-.121-.084-.24-.127-.361s-.089-.24-.135-.358c-.092-.242-.191-.482-.291-.722-.391-.932-.83-1.851-1.234-2.761a15.277,15.277,0,0,1-.577-1.463l-.051.073a3.11,3.11,0,0,0-.218.388c0,2.12-2.123,4.715-2.123,4.715l-2.136-3.112-1.87,2.875a2.348,2.348,0,0,0-.749,1.331c-.059.189-.116.393-.17.612-.038.145-.073.3-.105.453-.019.078-.035.156-.051.237l-.048.245v.038c-.032.167-.065.339-.094.515s-.065.377-.094.568q-.032.186-.057.372c-.038.24-.07.482-.1.722-.019.14-.038.269-.054.418l-.065.539c.137.442.291.878.45,1.307a2.172,2.172,0,0,1,.175.741,18.408,18.408,0,0,0,10.116,0,.1.1,0,0,1,0-.027,3.208,3.208,0,0,1-.065-.735h0a20.2,20.2,0,0,1,.269-2.061,7.545,7.545,0,0,0,.051-1.013v-.121C335.368,701.781,335.366,701.684,335.363,701.587Zm0,0a1.86,1.86,0,0,0-.019-.323c-.019-.108-.016-.2-.03-.3s-.024-.2-.038-.307-.032-.2-.051-.307-.038-.2-.059-.307a.462.462,0,0,0-.022-.1c-.03-.135-.062-.269-.1-.407s-.057-.218-.089-.326a.459.459,0,0,0-.043-.143c-.016-.046-.046-.156-.07-.234l-.048-.151c-.022-.067-.043-.135-.067-.2-.04-.121-.084-.24-.127-.361s-.089-.24-.135-.358c-.092-.242-.191-.482-.291-.722-.391-.932-.83-1.851-1.234-2.761a15.277,15.277,0,0,1-.577-1.463l-.051.073a3.11,3.11,0,0,0-.218.388c0,2.12-2.123,4.715-2.123,4.715l-2.136-3.112-1.87,2.875a2.348,2.348,0,0,0-.749,1.331c-.059.189-.116.393-.17.612-.038.145-.073.3-.105.453-.019.078-.035.156-.051.237l-.048.245v.038c-.032.167-.065.339-.094.515s-.065.377-.094.568q-.032.186-.057.372c-.038.24-.07.482-.1.722-.019.14-.038.269-.054.418l-.065.539c.137.442.291.878.45,1.307a2.172,2.172,0,0,1,.175.741,18.408,18.408,0,0,0,10.116,0,.1.1,0,0,1,0-.027,3.208,3.208,0,0,1-.065-.735h0a20.2,20.2,0,0,1,.269-2.061,7.545,7.545,0,0,0,.051-1.013v-.121C335.368,701.781,335.366,701.684,335.363,701.587Zm0,0a1.86,1.86,0,0,0-.019-.323c-.019-.108-.016-.2-.03-.3s-.024-.2-.038-.307-.032-.2-.051-.307-.038-.2-.059-.307a.462.462,0,0,0-.022-.1c-.03-.135-.062-.269-.1-.407s-.057-.218-.089-.326a.459.459,0,0,0-.043-.143c-.016-.046-.046-.156-.07-.234l-.048-.151c-.022-.067-.043-.135-.067-.2-.04-.121-.084-.24-.127-.361s-.089-.24-.135-.358c-.092-.242-.191-.482-.291-.722-.391-.932-.83-1.851-1.234-2.761a15.277,15.277,0,0,1-.577-1.463l-.051.073a3.11,3.11,0,0,0-.218.388c0,2.12-2.123,4.715-2.123,4.715l-2.136-3.112-1.87,2.875a2.348,2.348,0,0,0-.749,1.331c-.059.189-.116.393-.17.612-.038.145-.073.3-.105.453-.019.078-.035.156-.051.237l-.048.245v.038c-.032.167-.065.339-.094.515s-.065.377-.094.568q-.032.186-.057.372c-.038.24-.07.482-.1.722-.019.14-.038.269-.054.418l-.065.539c.137.442.291.878.45,1.307a2.172,2.172,0,0,1,.175.741,18.408,18.408,0,0,0,10.116,0,.1.1,0,0,1,0-.027,3.208,3.208,0,0,1-.065-.735h0a20.2,20.2,0,0,1,.269-2.061,7.545,7.545,0,0,0,.051-1.013v-.121C335.368,701.781,335.366,701.684,335.363,701.587Zm2.856-5.057-.962-3.839-.164-.657-.046-.18h0l-.234-.937a.179.179,0,0,0,0-.024h0a.216.216,0,0,0-.019-.121c-.035-.07-.124-.143-.331-.162a1.671,1.671,0,0,0-.237,0h0a4.1,4.1,0,0,0-.692.129c-.11.03-.229.062-.356.1l-.232.073h-.022a5.141,5.141,0,0,0-1.7.943,4.579,4.579,0,0,0-.862.954l-.051.073a3.105,3.105,0,0,0-.218.388c0,2.12-2.123,4.715-2.123,4.715l-2.136-3.112-.121-.175-.022-.03-.31-.455-.234-.312-.062-.081-1.1-1.474h0l-.35-.477v-.016l-.121-.164-.232-.307-.808.471-2.021,1.177-.932,6.064v.065l.027.442.2,3.376v.191l-.3,1.215a17.766,17.766,0,0,0,2.532,1.121l.229.081c.269.089.523.17.787.248a.953.953,0,0,1,.022.121v-.116a18.408,18.408,0,0,0,10.116,0l.062-.019c.154-.043.31-.089.461-.14l.245-.078a18.049,18.049,0,0,0,1.951-.781h0l.224-4.817.162-3.44Zm-13.249,9.3a.958.958,0,0,1,.022.121v-.116Zm10.394-4.246a1.86,1.86,0,0,0-.019-.323c-.019-.108-.016-.2-.03-.3s-.024-.2-.038-.307-.032-.2-.051-.307-.038-.2-.059-.307a.462.462,0,0,0-.022-.1c-.03-.135-.062-.269-.1-.407s-.057-.218-.089-.326a.459.459,0,0,0-.043-.143c-.016-.046-.046-.156-.07-.234l-.048-.151c-.022-.067-.043-.135-.067-.2-.04-.121-.084-.24-.127-.361s-.089-.24-.135-.358c-.092-.242-.191-.482-.291-.722-.391-.932-.83-1.851-1.234-2.761a15.277,15.277,0,0,1-.577-1.463l-.051.073a3.11,3.11,0,0,0-.218.388c0,2.12-2.123,4.715-2.123,4.715l-2.136-3.112-1.87,2.875a2.348,2.348,0,0,0-.749,1.331c-.059.189-.116.393-.17.612-.038.145-.073.3-.105.453-.019.078-.035.156-.051.237l-.048.245v.038c-.032.167-.065.339-.094.515s-.065.377-.094.568q-.032.186-.057.372c-.038.24-.07.482-.1.722-.019.14-.038.269-.054.418l-.065.539c.137.442.291.878.45,1.307a2.172,2.172,0,0,1,.175.741,18.408,18.408,0,0,0,10.116,0,.1.1,0,0,1,0-.027,3.208,3.208,0,0,1-.065-.735h0a20.2,20.2,0,0,1,.269-2.061,7.545,7.545,0,0,0,.051-1.013v-.121C335.368,701.781,335.366,701.684,335.363,701.587Zm0,0a1.86,1.86,0,0,0-.019-.323c-.019-.108-.016-.2-.03-.3s-.024-.2-.038-.307-.032-.2-.051-.307-.038-.2-.059-.307a.462.462,0,0,0-.022-.1c-.03-.135-.062-.269-.1-.407s-.057-.218-.089-.326a.459.459,0,0,0-.043-.143c-.016-.046-.046-.156-.07-.234l-.048-.151c-.022-.067-.043-.135-.067-.2-.04-.121-.084-.24-.127-.361s-.089-.24-.135-.358c-.092-.242-.191-.482-.291-.722-.391-.932-.83-1.851-1.234-2.761a15.277,15.277,0,0,1-.577-1.463l-.051.073a3.11,3.11,0,0,0-.218.388c0,2.12-2.123,4.715-2.123,4.715l-2.136-3.112-1.87,2.875a2.348,2.348,0,0,0-.749,1.331c-.059.189-.116.393-.17.612-.038.145-.073.3-.105.453-.019.078-.035.156-.051.237l-.048.245v.038c-.032.167-.065.339-.094.515s-.065.377-.094.568q-.032.186-.057.372c-.038.24-.07.482-.1.722-.019.14-.038.269-.054.418l-.065.539c.137.442.291.878.45,1.307a2.172,2.172,0,0,1,.175.741,18.408,18.408,0,0,0,10.116,0,.1.1,0,0,1,0-.027,3.208,3.208,0,0,1-.065-.735h0a20.2,20.2,0,0,1,.269-2.061,7.545,7.545,0,0,0,.051-1.013v-.121C335.368,701.781,335.366,701.684,335.363,701.587Zm0,0a1.86,1.86,0,0,0-.019-.323c-.019-.108-.016-.2-.03-.3s-.024-.2-.038-.307-.032-.2-.051-.307-.038-.2-.059-.307a.462.462,0,0,0-.022-.1c-.03-.135-.062-.269-.1-.407s-.057-.218-.089-.326a.459.459,0,0,0-.043-.143c-.016-.046-.046-.156-.07-.234l-.048-.151c-.022-.067-.043-.135-.067-.2-.04-.121-.084-.24-.127-.361s-.089-.24-.135-.358c-.092-.242-.191-.482-.291-.722-.391-.932-.83-1.851-1.234-2.761a15.277,15.277,0,0,1-.577-1.463l-.051.073a3.11,3.11,0,0,0-.218.388c0,2.12-2.123,4.715-2.123,4.715l-2.136-3.112-1.87,2.875a2.348,2.348,0,0,0-.749,1.331c-.059.189-.116.393-.17.612-.038.145-.073.3-.105.453-.019.078-.035.156-.051.237l-.048.245v.038c-.032.167-.065.339-.094.515s-.065.377-.094.568q-.032.186-.057.372c-.038.24-.07.482-.1.722-.019.14-.038.269-.054.418l-.065.539c.137.442.291.878.45,1.307a2.172,2.172,0,0,1,.175.741,18.408,18.408,0,0,0,10.116,0,.1.1,0,0,1,0-.027,3.208,3.208,0,0,1-.065-.735h0a20.2,20.2,0,0,1,.269-2.061,7.545,7.545,0,0,0,.051-1.013v-.121C335.368,701.781,335.366,701.684,335.363,701.587Zm0,0a1.86,1.86,0,0,0-.019-.323c-.019-.108-.016-.2-.03-.3s-.024-.2-.038-.307-.032-.2-.051-.307-.038-.2-.059-.307a.462.462,0,0,0-.022-.1c-.03-.135-.062-.269-.1-.407s-.057-.218-.089-.326a.459.459,0,0,0-.043-.143c-.016-.046-.046-.156-.07-.234l-.048-.151c-.022-.067-.043-.135-.067-.2-.04-.121-.084-.24-.127-.361s-.089-.24-.135-.358c-.092-.242-.191-.482-.291-.722-.391-.932-.83-1.851-1.234-2.761a15.277,15.277,0,0,1-.577-1.463l-.051.073a3.11,3.11,0,0,0-.218.388c0,2.12-2.123,4.715-2.123,4.715l-2.136-3.112-1.87,2.875a2.348,2.348,0,0,0-.749,1.331c-.059.189-.116.393-.17.612-.038.145-.073.3-.105.453-.019.078-.035.156-.051.237l-.048.245v.038c-.032.167-.065.339-.094.515s-.065.377-.094.568q-.032.186-.057.372c-.038.24-.07.482-.1.722-.019.14-.038.269-.054.418l-.065.539c.137.442.291.878.45,1.307a2.172,2.172,0,0,1,.175.741,18.408,18.408,0,0,0,10.116,0,.1.1,0,0,1,0-.027,3.208,3.208,0,0,1-.065-.735h0a20.2,20.2,0,0,1,.269-2.061,7.545,7.545,0,0,0,.051-1.013v-.121C335.368,701.781,335.366,701.684,335.363,701.587Zm0,0a1.86,1.86,0,0,0-.019-.323c-.019-.108-.016-.2-.03-.3s-.024-.2-.038-.307-.032-.2-.051-.307-.038-.2-.059-.307a.462.462,0,0,0-.022-.1c-.03-.135-.062-.269-.1-.407s-.057-.218-.089-.326a.459.459,0,0,0-.043-.143c-.016-.046-.046-.156-.07-.234l-.048-.151c-.022-.067-.043-.135-.067-.2-.04-.121-.084-.24-.127-.361s-.089-.24-.135-.358c-.092-.242-.191-.482-.291-.722-.391-.932-.83-1.851-1.234-2.761a15.277,15.277,0,0,1-.577-1.463l-.051.073a3.11,3.11,0,0,0-.218.388c0,2.12-2.123,4.715-2.123,4.715l-2.136-3.112-1.87,2.875a2.348,2.348,0,0,0-.749,1.331c-.059.189-.116.393-.17.612-.038.145-.073.3-.105.453-.019.078-.035.156-.051.237l-.048.245v.038c-.032.167-.065.339-.094.515s-.065.377-.094.568q-.032.186-.057.372c-.038.24-.07.482-.1.722-.019.14-.038.269-.054.418l-.065.539c.137.442.291.878.45,1.307a2.172,2.172,0,0,1,.175.741,18.408,18.408,0,0,0,10.116,0,.1.1,0,0,1,0-.027,3.208,3.208,0,0,1-.065-.735h0a20.2,20.2,0,0,1,.269-2.061,7.545,7.545,0,0,0,.051-1.013v-.121C335.368,701.781,335.366,701.684,335.363,701.587Zm0,0a1.86,1.86,0,0,0-.019-.323c-.019-.108-.016-.2-.03-.3s-.024-.2-.038-.307-.032-.2-.051-.307-.038-.2-.059-.307a.462.462,0,0,0-.022-.1c-.03-.135-.062-.269-.1-.407s-.057-.218-.089-.326a.459.459,0,0,0-.043-.143c-.016-.046-.046-.156-.07-.234l-.048-.151c-.022-.067-.043-.135-.067-.2-.04-.121-.084-.24-.127-.361s-.089-.24-.135-.358c-.092-.242-.191-.482-.291-.722-.391-.932-.83-1.851-1.234-2.761a15.277,15.277,0,0,1-.577-1.463l-.051.073a3.11,3.11,0,0,0-.218.388c0,2.12-2.123,4.715-2.123,4.715l-2.136-3.112-1.87,2.875a2.348,2.348,0,0,0-.749,1.331c-.059.189-.116.393-.17.612-.038.145-.073.3-.105.453-.019.078-.035.156-.051.237l-.048.245v.038c-.032.167-.065.339-.094.515s-.065.377-.094.568q-.032.186-.057.372c-.038.24-.07.482-.1.722-.019.14-.038.269-.054.418l-.065.539c.137.442.291.878.45,1.307a2.172,2.172,0,0,1,.175.741,18.408,18.408,0,0,0,10.116,0,.1.1,0,0,1,0-.027,3.208,3.208,0,0,1-.065-.735h0a20.2,20.2,0,0,1,.269-2.061,7.545,7.545,0,0,0,.051-1.013v-.121C335.368,701.781,335.366,701.684,335.363,701.587Zm0,0a1.86,1.86,0,0,0-.019-.323c-.019-.108-.016-.2-.03-.3s-.024-.2-.038-.307-.032-.2-.051-.307-.038-.2-.059-.307a.462.462,0,0,0-.022-.1c-.03-.135-.062-.269-.1-.407s-.057-.218-.089-.326a.459.459,0,0,0-.043-.143c-.016-.046-.046-.156-.07-.234l-.048-.151c-.022-.067-.043-.135-.067-.2-.04-.121-.084-.24-.127-.361s-.089-.24-.135-.358c-.092-.242-.191-.482-.291-.722-.391-.932-.83-1.851-1.234-2.761a15.277,15.277,0,0,1-.577-1.463l-.051.073a3.11,3.11,0,0,0-.218.388c0,2.12-2.123,4.715-2.123,4.715l-2.136-3.112-1.87,2.875a2.348,2.348,0,0,0-.749,1.331c-.059.189-.116.393-.17.612-.038.145-.073.3-.105.453-.019.078-.035.156-.051.237l-.048.245v.038c-.032.167-.065.339-.094.515s-.065.377-.094.568q-.032.186-.057.372c-.038.24-.07.482-.1.722-.019.14-.038.269-.054.418l-.065.539c.137.442.291.878.45,1.307a2.172,2.172,0,0,1,.175.741,18.408,18.408,0,0,0,10.116,0,.1.1,0,0,1,0-.027,3.208,3.208,0,0,1-.065-.735h0a20.2,20.2,0,0,1,.269-2.061,7.545,7.545,0,0,0,.051-1.013v-.121C335.368,701.781,335.366,701.684,335.363,701.587Zm0,0a1.86,1.86,0,0,0-.019-.323c-.019-.108-.016-.2-.03-.3s-.024-.2-.038-.307-.032-.2-.051-.307-.038-.2-.059-.307a.462.462,0,0,0-.022-.1c-.03-.135-.062-.269-.1-.407s-.057-.218-.089-.326a.459.459,0,0,0-.043-.143c-.016-.046-.046-.156-.07-.234l-.048-.151c-.022-.067-.043-.135-.067-.2-.04-.121-.084-.24-.127-.361s-.089-.24-.135-.358c-.092-.242-.191-.482-.291-.722-.391-.932-.83-1.851-1.234-2.761a15.277,15.277,0,0,1-.577-1.463l-.051.073a3.11,3.11,0,0,0-.218.388c0,2.12-2.123,4.715-2.123,4.715l-2.136-3.112-1.87,2.875a2.348,2.348,0,0,0-.749,1.331c-.059.189-.116.393-.17.612-.038.145-.073.3-.105.453-.019.078-.035.156-.051.237l-.048.245v.038c-.032.167-.065.339-.094.515s-.065.377-.094.568q-.032.186-.057.372c-.038.24-.07.482-.1.722-.019.14-.038.269-.054.418l-.065.539c.137.442.291.878.45,1.307a2.172,2.172,0,0,1,.175.741,18.408,18.408,0,0,0,10.116,0,.1.1,0,0,1,0-.027,3.208,3.208,0,0,1-.065-.735h0a20.2,20.2,0,0,1,.269-2.061,7.545,7.545,0,0,0,.051-1.013v-.121C335.368,701.781,335.366,701.684,335.363,701.587Z" transform="translate(-311.752 -669.912)" fill="#444176"/>
      <path id="Caminho_197" data-name="Caminho 197" d="M313.469,694.877l-.181-.024a6.561,6.561,0,0,1-.808-.162l-.1-.027c-.657-.186-1.377-.52-1.538-1.107a1.048,1.048,0,0,1,.016-.574,4.92,4.92,0,0,1,.366-.927v-.016a1.283,1.283,0,0,1,.067-.121,2.694,2.694,0,0,1,.973-1.059l-.323.051-2.737.445-4.243.684s-.754-.151-1.781,2.678a.438.438,0,0,1-.035.105c-.248.692-.509,1.557-.779,2.637-.186.749-.356,1.484-.512,2.2-.046.216-.092.428-.135.638a17.114,17.114,0,0,0,1.565,1.616l.089.084a18.388,18.388,0,0,0,3.589,2.541l.051.027a17.767,17.767,0,0,0,2.532,1.121l.229.081c.048-.5.1-1.051.167-1.616a.46.46,0,0,1,.022-.17l.065-.539c.016-.137.035-.269.054-.418.032-.24.065-.482.1-.722q.024-.186.057-.372c.03-.191.062-.383.094-.568s.062-.348.094-.515v-.038l.048-.245c.016-.081.032-.159.051-.237.032-.154.067-.307.105-.453.054-.218.11-.423.17-.612a2.3,2.3,0,0,1,.749-1.331l1.87-2.875.078-.121.035-.054Z" transform="translate(-297.345 -670.099)" opacity="0.1"/>
      <path id="Caminho_198" data-name="Caminho 198" d="M312.8,694.9l-1.986,3.05a2.278,2.278,0,0,0-.735,1.29c-.062.2-.124.418-.183.647a32.212,32.212,0,0,0-.609,3.527.419.419,0,0,1-.022.162c-.092.749-.167,1.484-.229,2.134a17.766,17.766,0,0,1-2.532-1.121l-.051-.027a18.389,18.389,0,0,1-3.589-2.54l-.089-.084a17.115,17.115,0,0,1-1.565-1.616c-.065-.073-.127-.148-.189-.224.03-.14.059-.269.092-.42.154-.714.323-1.447.509-2.193a26.543,26.543,0,0,1,.916-3.017.82.82,0,0,1,.035-.086c.954-2.454,1.641-2.317,1.641-2.317l4.48-.722,2.829-.458-.089.051a2.87,2.87,0,0,0-.779.83l-.078.132c-.032.051-.062.108-.094.164a4.771,4.771,0,0,0-.372.943.991.991,0,0,0,.065.771,2.566,2.566,0,0,0,1.662.964l.105.027A6.759,6.759,0,0,0,312.8,694.9Z" transform="translate(-296.833 -670.114)" fill="#f1d2d7"/>
      <path id="Caminho_199" data-name="Caminho 199" d="M379.867,698.479l-.11-2.392c.471-3.772-.471-4.006-.471-4.006l-1.121-.539h-.03l-4.507-2.185-.175-.086-.054-.024h0l-.587-.286h0l-.372-.181-.7-.337-.234-.113v.935c0,.269.024.585.046.951.048.921.137,2.155.3,3.61.089.843.2,1.765.342,2.753.084.585.143,1.167.181,1.735a30.532,30.532,0,0,1-.178,5.738l.245-.078a18.054,18.054,0,0,0,1.951-.781h0a17.908,17.908,0,0,0,3.475-2.134l.048-.035a17.973,17.973,0,0,0,1.956-1.775Z" transform="translate(-348.333 -668.251)" opacity="0.1"/>
      <path id="Caminho_200" data-name="Caminho 200" d="M380.732,698.442l-.11-2.4c.471-3.772-.471-4.006-.471-4.006l-1.347-.652h-.027l-4.521-2.193-.207-.1-.04-.019-.331-.162-.439-.213-.867-.42v.383h0v.474c0,.269.024.622.048,1.024.046.859.127,1.985.269,3.324.1.919.218,1.94.377,3.039q.124.881.178,1.743a30.49,30.49,0,0,1-.167,5.658,18.245,18.245,0,0,0,5.426-2.915l.048-.035a17.97,17.97,0,0,0,1.956-1.775q.119-.119.226-.242Z" transform="translate(-348.961 -668.214)" fill="#f1d2d7"/>
      <path id="Caminho_201" data-name="Caminho 201" d="M334.306,639.217a6.739,6.739,0,0,1,2.522-.269,8.257,8.257,0,0,1,1.926.935,4.987,4.987,0,0,0,1.988.525,1.17,1.17,0,0,0,.73-.143,1.132,1.132,0,0,0,.326-1.11,6.372,6.372,0,0,0-1.616-3.028,5.927,5.927,0,0,0-1.013-1.026,5.35,5.35,0,0,0-3.446-.781,8.632,8.632,0,0,0-3.947,1.013c-.808.463-2.662,1.924-2.018,2.98C330.434,639.417,333.247,639.4,334.306,639.217Z" transform="translate(-317.732 -628.783)" opacity="0.1"/>
      <path id="Caminho_202" data-name="Caminho 202" d="M334.306,638.217a6.739,6.739,0,0,1,2.522-.269,8.257,8.257,0,0,1,1.926.935,4.987,4.987,0,0,0,1.988.525,1.169,1.169,0,0,0,.73-.143,1.132,1.132,0,0,0,.326-1.11,6.372,6.372,0,0,0-1.616-3.028,5.927,5.927,0,0,0-1.013-1.026,5.35,5.35,0,0,0-3.446-.781,8.633,8.633,0,0,0-3.947,1.013c-.808.463-2.662,1.924-2.018,2.98C330.434,638.417,333.247,638.4,334.306,638.217Z" transform="translate(-317.732 -628.052)" fill="#444176"/>
    </g>
    <path id="Caminho_203" data-name="Caminho 203" d="M619.805,399.7h.04c.059,1.805.315,3.438.808,3.89,1.175,1.078,6.045-1.078,5.711-2.382-.067-.269-.18-.711-.323-1.269,1.315-.164,2.438-.539,2.885-1.309l.846,2.608.059.186h.065c.558,5.286,1.821,16.261,2.831,17.732,1.347,1.948,2.9,10.388,2.9,10.388l2.9,17.315s1.115,9.968,1.784,11.046a1.252,1.252,0,0,0,.733.38,10.612,10.612,0,0,1-1.616,3.3c-1.347,1.514-3.12,4.545-4.68,4.329s-2,3.031.892,3.462a23.94,23.94,0,0,0,6.124-.358,2.192,2.192,0,0,0,2.12,2.091c2.9.434,8.912-.865,8.912-.865s5.119-2.155,5.348-3.68c.162-1.1-.622-5.539-1.059-7.864.808-1.3-.054-12.479-.054-12.479l-1.56-21.426s.892-11.9,0-14.068c-.558-1.347-.765-7.543-.843-11.975l1.078.07a1.984,1.984,0,0,0,.167-.234l.269.019a3.579,3.579,0,0,0,.224-3.9c-.827-1.77-.671-9.761-.539-13.74h0l.159-1.886a.538.538,0,0,0,.132-.2,19.761,19.761,0,0,0,6.016-1.821,6.1,6.1,0,0,0,1.579-.959c1.115-1.078.445-7.576-1.783-17.315s-4.232-8.874-4.232-8.874-5.348-.434-7.8-3.68-4.1-3.2-4.1-3.2h0c-.062-.426-.105-.827-.135-1.2,0-.14-.022-.269-.03-.409a7.123,7.123,0,0,0,1.854-2.81,13.923,13.923,0,0,0,1.6-.7,1.9,1.9,0,0,0,.331-.307,2.724,2.724,0,0,0,.859-1.695,6.93,6.93,0,0,0-.1-2.126,5.151,5.151,0,0,0-3.4-4.666q-3.535-1.856-7.088-3.675a3.912,3.912,0,0,0-1.517-.539,4.042,4.042,0,0,0-2.565,1.212,10.945,10.945,0,0,0-.876.768,4.916,4.916,0,0,0-.644.692,6.64,6.64,0,0,0-.881,4.954.679.679,0,0,0,.719.606,6.945,6.945,0,0,0-.741,3.125,7.086,7.086,0,0,0,3.289,5.951c0,.151,0,.3.013.442a15.8,15.8,0,0,1-.054,1.657s-5.927,3.2-6.592,4.717-3.12,2.6-3.12,2.6-4.68,2.382-4.68,10.822l-2.452,11.9-.445,22.724s.307-.269.808-.652c-.016.151-.03.307-.043.466a25.659,25.659,0,0,0-.067,2.611Zm29.931,58.814c-.092.348-.226.808-.4,1.347-.075-.447-.151-.889-.226-1.309C649.308,458.535,649.516,458.525,649.736,458.517Z" transform="translate(-463.978 -243.801)" fill="url(#linear-gradient-4)"/>
    <path id="Caminho_204" data-name="Caminho 204" d="M681.439,808.764s-.859,3.863-2.155,5.364-2.993,4.507-4.491,4.292-1.932,3,.859,3.432,8.57-.857,8.57-.857,4.936-2.155,5.148-3.648-1.288-9.227-1.288-9.227Z" transform="translate(-503.773 -596.839)" fill="#53526b"/>
    <path id="Caminho_205" data-name="Caminho 205" d="M681.439,808.764s-.859,3.863-2.155,5.364-2.993,4.507-4.491,4.292-1.932,3,.859,3.432,8.57-.857,8.57-.857,4.936-2.155,5.148-3.648-1.288-9.227-1.288-9.227Z" transform="translate(-503.773 -596.839)" opacity="0.05"/>
    <path id="Caminho_206" data-name="Caminho 206" d="M710.9,815.127s-.859,3.863-2.155,5.364-3,4.507-4.5,4.292-1.932,3,.859,3.432,8.583-.859,8.583-.859,4.936-2.155,5.148-3.648-1.288-9.227-1.288-9.227Z" transform="translate(-525.292 -601.486)" fill="#53526b"/>
    <path id="Caminho_207" data-name="Caminho 207" d="M659.66,598.67s1.716,18.452,3,20.383,2.788,10.3,2.788,10.3l2.788,17.164s1.078,9.871,1.716,10.943,8.6.612,8.6.612l-4.952-56.829Z" transform="translate(-493.581 -443.816)" fill="#5f5d7e"/>
    <path id="Caminho_208" data-name="Caminho 208" d="M659.66,598.67s1.716,18.452,3,20.383,2.788,10.3,2.788,10.3l2.788,17.164s1.078,9.871,1.716,10.943,8.6.612,8.6.612l-4.952-56.829Z" transform="translate(-493.581 -443.816)" opacity="0.05"/>
    <path id="Caminho_209" data-name="Caminho 209" d="M646.92,566l.56,1.781,3.031,9.621.059.183h.016c.407.092,9,2.066,10.849,2.672a2.619,2.619,0,0,1,.294.11c.859.428,1.932,15.876,1.932,15.876s.644,14.591,1.078,15.663,2.155,23.169,3.219,22.528,8.8,0,8.8,0c.859-.859,0-12.444,0-12.444l-1.525-21.237s.859-11.8,0-13.947-.859-16.52-.859-16.52l-17.563-2.745-1.7-.269Z" transform="translate(-484.274 -419.948)" fill="#5f5d7e"/>
    <path id="Caminho_210" data-name="Caminho 210" d="M649,570.976l3.031,9.62.073.189c.407.092,9,2.066,10.849,2.673h.186l-4.8-12.721-.137-.366-1.56.1Z" transform="translate(-485.793 -423.141)" opacity="0.02"/>
    <path id="Caminho_211" data-name="Caminho 211" d="M670.427,406.73s-7.939,8.583-12.875,1.5l-4.72,3.219.859,4.936L650.9,453.717s7.3-.216,12.444,1.5a7.985,7.985,0,0,0,8.368-1.932l-.849-32.825,1.932-10.084Z" transform="translate(-487.181 -303.586)" opacity="0.1"/>
    <path id="Caminho_212" data-name="Caminho 212" d="M670.427,404.34s-7.939,8.583-12.875,1.5l-4.72,3.219.859,4.936L650.9,451.327s7.3-.216,12.444,1.5a7.985,7.985,0,0,0,8.368-1.932l-.849-32.825,1.932-10.084Z" transform="translate(-487.181 -301.84)" fill="#53526b"/>
    <g id="TESLA" transform="translate(164.893 139.84)">
      <g id="g8">
        <path id="polyline10" d="M614.731,522.36v1.352H614.3v-.9h-1.576v.9h-.434v-1.35l2.441,0" transform="translate(-612.228 -521.476)" fill="#e82127"/>
        <path id="path12" d="M657.378,543.387h-1.665a.614.614,0,0,1-.453-.447h2.567a.617.617,0,0,1-.453.447" transform="translate(-655.26 -542.94)" fill="#e82127"/>
      </g>
      <g id="g30" transform="translate(14.365 0.016)">
        <path id="path32" d="M711.387,543a.622.622,0,0,1-.45.444h-.7l-.035.013v1.767h-.431v-1.767l-.04-.013h-.7a.63.63,0,0,1-.45-.445h2.807" transform="translate(-708.58 -543)" fill="#e82127"/>
      </g>
    </g>
    <path id="Caminho_213" data-name="Caminho 213" d="M634.7,569.2s0,5.579-1.288,7.939-8.8,1.078-8.8,1.078l1.5-7.939Z" transform="translate(-467.981 -422.286)" fill="#d6dbe6"/>
    <path id="Caminho_214" data-name="Caminho 214" d="M625.51,589.78c1.132,1.078,5.822-1.078,5.5-2.36-.226-.908-1.018-4.157-1.468-6l-.312-1.3s-2.748-.859-3.718,0a6.118,6.118,0,0,0-.717,3.031C624.594,585.739,624.8,589.1,625.51,589.78Z" transform="translate(-468.055 -429.988)" fill="#fdc2cc"/>
    <path id="Caminho_215" data-name="Caminho 215" d="M666,379.174l7.508,5.792s11.156-.644,8.368-6.008a20,20,0,0,1-2.155-7.581,15.856,15.856,0,0,1,0-2.934s-10.3-9.429-9.012,1.288a24.337,24.337,0,0,1,.178,2.479C671.041,380.254,666,379.174,666,379.174Z" transform="translate(-498.213 -272.814)" fill="#fdc2cc"/>
    <path id="Caminho_216" data-name="Caminho 216" d="M683.258,369.728a24.3,24.3,0,0,1,.178,2.479,7.032,7.032,0,0,0,3.9,1.169c1.921,0,3.335-1.87,4.612-3.112-.143-1.781.321-1.824.321-1.824S681.97,359,683.258,369.728Z" transform="translate(-510.74 -272.808)" opacity="0.1"/>
    <circle id="Elipse_55" data-name="Elipse 55" cx="7.08" cy="7.08" r="7.08" transform="translate(169.514 85.98)" fill="#fdc2cc"/>
    <path id="Caminho_217" data-name="Caminho 217" d="M701.754,394.38s1.18.108,3.54,3.324,7.508,3.648,7.508,3.648,1.932-.859,4.076,8.8,2.788,16.092,1.716,17.164-5.364,2.578-7.519,2.578c0,0-.644,13.516.428,15.876a3.657,3.657,0,0,1-.216,3.863l-9.429-.644A22.44,22.44,0,0,1,698,437.83c-.644-7.08-2.788-27.251-1.716-29.611s5.792-8.368,5.579-9.012A38.745,38.745,0,0,1,701.754,394.38Z" transform="translate(-520.119 -294.564)" opacity="0.1"/>
    <path id="Caminho_218" data-name="Caminho 218" d="M702.956,394.14s1.587-.043,3.947,3.176,7.506,3.648,7.506,3.648,1.932-.859,4.076,8.8,2.788,16.092,1.716,17.164-5.364,2.576-7.508,2.576c0,0-.644,13.516.428,15.876a3.657,3.657,0,0,1-.216,3.863l-9.429-.644a22.44,22.44,0,0,1-3.863-11.156c-.644-7.08-2.794-27.248-1.722-29.6s5.792-8.368,5.579-9.012S702.956,394.14,702.956,394.14Z" transform="translate(-521.297 -294.388)" fill="#d6dbe6"/>
    <path id="Caminho_219" data-name="Caminho 219" d="M625,583.145c1.026-.784,2.964-2,4.747-1.735l-.312-1.3s-2.748-.859-3.718,0A6.018,6.018,0,0,0,625,583.145Z" transform="translate(-468.259 -429.981)" opacity="0.1"/>
    <path id="Caminho_220" data-name="Caminho 220" d="M640.654,399.16s-5.472,3.54-6.116,5.043-3,2.576-3,2.576-4.5,2.36-4.5,10.728l-2.36,11.8L635.4,444.326s1.288-15.019,1.932-18.667,1.5-10.507,1.5-10.507,3.219-4.076,2.788-5.148S640.654,399.16,640.654,399.16Z" transform="translate(-468.018 -298.056)" opacity="0.1"/>
    <path id="Caminho_221" data-name="Caminho 221" d="M638.864,398.92s-5.706,3.176-6.347,4.677-3,2.576-3,2.576-4.5,2.36-4.5,10.728l-2.36,11.8-.428,22.528s3.863-3.648,6.652-1.932,4.5-5.579,4.5-5.579,1.288-15.019,1.932-18.667,1.5-10.507,1.5-10.507,3.219-4.076,2.788-5.148S638.864,398.92,638.864,398.92Z" transform="translate(-466.228 -297.88)" fill="#d6dbe6"/>
    <path id="Caminho_222" data-name="Caminho 222" d="M672.931,330.717a7,7,0,0,1,1.25-1.234,3.83,3.83,0,0,1,2.47-1.2,3.7,3.7,0,0,1,1.46.523q3.422,1.8,6.824,3.642a6.346,6.346,0,0,1,2.287,1.746,6.73,6.73,0,0,1,.986,2.883,7.067,7.067,0,0,1,.1,2.107,2.643,2.643,0,0,1-.932,1.77c-.612.445-1.449.447-1.961,1.029a5.734,5.734,0,0,0-.636,1.218c-.21.409-.574.808-.989.735a1.038,1.038,0,0,1-.725-.956,5.811,5.811,0,0,1,.078-1.347,3.19,3.19,0,0,0-.49-2.266c-.323-.409-.787-.657-1.1-1.078-.749-1.013-.407-2.694-1.229-3.645a1.948,1.948,0,0,0-1.886-.539,8.06,8.06,0,0,0-1.886.808,14.007,14.007,0,0,1-2.584,1c-.749.2-1.616.7-1.872-.3A6.642,6.642,0,0,1,672.931,330.717Z" transform="translate(-502.552 -246.27)" opacity="0.1"/>
    <path id="Caminho_223" data-name="Caminho 223" d="M673.728,329.927a7,7,0,0,1,1.25-1.234,3.83,3.83,0,0,1,2.47-1.2,3.7,3.7,0,0,1,1.46.523c2.279,1.2,4.173.065,6.824,3.642.566.765,1.7.932,2.287,1.746a6.73,6.73,0,0,1,.986,2.883,7.065,7.065,0,0,1,.1,2.107,2.643,2.643,0,0,1-.932,1.77c-.612.445-1.449.447-1.961,1.029a5.734,5.734,0,0,0-.636,1.218c-.21.409-.574.808-.989.735a1.038,1.038,0,0,1-.725-.956,5.8,5.8,0,0,1,.078-1.347,3.19,3.19,0,0,0-.49-2.266c-.323-.409-.787-.657-1.1-1.078-.749-1.013-.407-2.694-1.228-3.645a1.948,1.948,0,0,0-1.886-.539,8.061,8.061,0,0,0-1.886.808,14.01,14.01,0,0,1-2.584,1c-.749.2-1.616.7-1.872-.3A6.627,6.627,0,0,1,673.728,329.927Z" transform="translate(-503.134 -245.693)" fill="#865a61"/>
    <path id="Caminho_224" data-name="Caminho 224" d="M737.336,458.09s2.861,7.3.714,10.3l-4.72-1.078s4.292,1.288,3.648-1.288S737.336,458.09,737.336,458.09Z" transform="translate(-547.404 -341.11)" opacity="0.1"/>
    <path id="Caminho_225" data-name="Caminho 225" d="M732.469,522.669s-6.223.428-7.939-.859a16.433,16.433,0,0,0,7.745,3.219Z" transform="translate(-540.975 -387.663)" opacity="0.1"/>
    <path id="Caminho_226" data-name="Caminho 226" d="M646.316,474s-3.219,9.871-3,11.372.644,18.023.644,18.023l.644-.216-.215-18.023Z" transform="translate(-481.63 -352.733)" opacity="0.1"/>
    <path id="Caminho_227" data-name="Caminho 227" d="M346.67,179.749l-73.548-59.27a4.6,4.6,0,0,0-3.26-1.347h-3.125a39.872,39.872,0,1,0-6.9,6.9v3.122a4.6,4.6,0,0,0,1.347,3.26l73.548,59.27a4.58,4.58,0,0,0,6.5,0l5.42-5.415A4.626,4.626,0,0,0,346.67,179.749ZM235.278,119.132a10.171,10.171,0,1,1,0,.005Z" transform="translate(-154.419 -46.418)" fill="url(#linear-gradient-5)"/>
    <path id="Caminho_228" data-name="Caminho 228" d="M348.67,177.749l-73.548-59.27a4.6,4.6,0,0,0-3.26-1.347h-3.125a39.872,39.872,0,1,0-6.9,6.9v3.122a4.6,4.6,0,0,0,1.347,3.26l73.548,59.27a4.58,4.58,0,0,0,6.5,0l5.42-5.415a4.626,4.626,0,0,0,.019-6.525ZM237.278,117.132a10.171,10.171,0,1,1,0,.005Z" transform="translate(-155.88 -44.957)" fill="#00368f"/>
    <path id="Caminho_229" data-name="Caminho 229" d="M713.093,478.211s-10.736-12.312-9.227-3.863c1.078,6.008,5.148,9.227,7.08,9.871S713.093,478.211,713.093,478.211Z" transform="translate(-525.772 -350.824)" fill="#fdc2cc"/>
    <path id="Caminho_230" data-name="Caminho 230" d="M728.87,454.51s.216,7.939,1.288,9.012-.644,2.36-.644,2.36l-4.292-1.078s1.078,7.08-3.432,6.223c0,0,3,2.788,6.008,3.219s2.788-.644,2.788-.644l4.5-5.364Z" transform="translate(-538.973 -338.494)" fill="#d6dbe6"/>
    <path id="Caminho_231" data-name="Caminho 231" d="M702.7,490.991l4.354-.956-.582-2.007-2.694-1.078-3.5,1.616Z" transform="translate(-511.62 -355.766)" fill="#d6dbe6"/>
    <path id="Caminho_232" data-name="Caminho 232" d="M280.78,150.13a18.233,18.233,0,0,0,3.659,10.986c.24.321.49.63.752.935.14.164.286.326.434.485q.11.124.226.242a17.975,17.975,0,0,0,1.956,1.775l.048.035a18.24,18.24,0,0,0,5.426,2.915l.245.078c.151.051.307.1.461.14l.062.019c.078.022.156.046.237.065a18.241,18.241,0,0,0,4.8.638c.269,0,.552,0,.827-.019a18.114,18.114,0,0,0,4.249-.7h.027c.256-.075.509-.154.76-.24h.027l.229-.081a17.762,17.762,0,0,0,2.532-1.121l.051-.027.269-.148a18.273,18.273,0,0,0,3.324-2.392l.089-.084a17.114,17.114,0,0,0,1.565-1.616l.057-.067c.046-.051.089-.1.132-.156.119-.14.232-.286.345-.431A18.32,18.32,0,1,0,280.78,150.13Z" transform="translate(-216.774 -102.734)" fill="#c0bccf"/>
    <path id="Caminho_233" data-name="Caminho 233" d="M297.084,167.109s3.974-.337,5.795-2.864c1.775-2.46,2.982-2.489,3.042-2.489h0c.046-.329.078-.641.1-.932v-.04a.539.539,0,0,1-.251.11c-.356.054-.668-.283-.846-.641a5,5,0,0,0-.539-1.061c-.439-.506-1.158-.509-1.681-.894a2.312,2.312,0,0,1-.808-1.541,4.246,4.246,0,0,1-.032-.674,7.459,7.459,0,0,1,.113-1.436,5.915,5.915,0,0,1,.846-2.508c.5-.7,1.474-.854,1.959-1.519,2.271-3.114,3.89-2.126,5.843-3.171a3.13,3.13,0,0,1,1.25-.455,3.268,3.268,0,0,1,2.115,1.048,6.041,6.041,0,0,1,1.078,1.078,5.847,5.847,0,0,1,.851,3.271,4.9,4.9,0,0,1-.124,1.28c-.156.62-.579.579-1.043.439a5.6,5.6,0,0,1-1.9,7.026v.283a.488.488,0,0,0,0,.062,12.753,12.753,0,0,0,.043,1.288c.046.024,4.4,2.495,4.9,3.667a5.32,5.32,0,0,0,2.32,2.021s2.007,1.078,2.963,4.461l-.057.067a17.277,17.277,0,0,1-1.565,1.649l-.089.086a18.285,18.285,0,0,1-3.324,2.425c-.086.051-.175.1-.269.151l-.051.027a17.613,17.613,0,0,1-2.532,1.14l-.229.084h-.027c-.251.089-.5.167-.76.242h-.027a17.839,17.839,0,0,1-4.249.706c-.269.013-.539.019-.827.019a17.956,17.956,0,0,1-4.79-.622c-.081-.019-.159-.043-.237-.065l-.062-.019c-.154-.043-.31-.092-.461-.143l-.245-.078a18.164,18.164,0,0,1-5.434-2.966l-.048-.035a18.087,18.087,0,0,1-1.956-1.805q-.116-.119-.226-.248c-.148-.162-.294-.326-.434-.493-.269-.31-.512-.625-.752-.951C295.861,166.554,297.084,167.109,297.084,167.109Z" transform="translate(-226.74 -113.822)" fill="url(#linear-gradient-6)"/>
    <path id="Caminho_234" data-name="Caminho 234" d="M336.878,195.806l5.795-4.469s-3.882.832-3.772-5.372a.477.477,0,0,1,0-.062,15.877,15.877,0,0,1,.135-1.851c.994-8.279-6.953-.994-6.953-.994a11.856,11.856,0,0,1,0,2.2v.059a15.394,15.394,0,0,1-1.654,5.849C328.271,195.307,336.878,195.806,336.878,195.806Z" transform="translate(-252.793 -138.009)" fill="#fdc2cc"/>
    <path id="Caminho_235" data-name="Caminho 235" d="M338.236,184.111c.983.956,1.584,2.694,3.063,2.694a5.429,5.429,0,0,0,3.009-.9,15.877,15.877,0,0,1,.135-1.851c.994-8.279-6.953-.994-6.953-.994S338.341,182.764,338.236,184.111Z" transform="translate(-258.206 -138.009)" opacity="0.1"/>
    <circle id="Elipse_56" data-name="Elipse 56" cx="5.464" cy="5.464" r="5.464" transform="translate(77.63 37.6)" fill="#fdc2cc"/>
    <path id="Caminho_236" data-name="Caminho 236" d="M335.266,152.087a6,6,0,0,0-1.078-1.056A3.267,3.267,0,0,0,332.073,150a3.165,3.165,0,0,0-1.25.447c-1.953,1.029-3.572.057-5.843,3.117-.485.655-1.457.808-1.959,1.5a5.731,5.731,0,0,0-.846,2.468,6.052,6.052,0,0,0-.083,1.805,2.26,2.26,0,0,0,.808,1.514c.523.38,1.242.383,1.681.881a4.891,4.891,0,0,1,.539,1.043c.178.35.49.682.846.63a.872.872,0,0,0,.62-.808,4.967,4.967,0,0,0-.067-1.15,2.752,2.752,0,0,1,.42-1.94c.269-.353.674-.563.94-.921.641-.865.35-2.317,1.053-3.12a1.668,1.668,0,0,1,1.616-.45,6.888,6.888,0,0,1,1.616.7,11.994,11.994,0,0,0,2.212.854c.641.175,1.385.6,1.6-.269A5.694,5.694,0,0,0,335.266,152.087Z" transform="translate(-246.933 -116.02)" opacity="0.1"/>
    <path id="Caminho_237" data-name="Caminho 237" d="M335.266,151.087a6,6,0,0,0-1.078-1.056A3.267,3.267,0,0,0,332.073,149a3.165,3.165,0,0,0-1.25.447c-1.953,1.029-3.572.057-5.843,3.117-.485.655-1.457.808-1.959,1.5a5.731,5.731,0,0,0-.846,2.468,6.052,6.052,0,0,0-.083,1.805,2.26,2.26,0,0,0,.808,1.514c.523.38,1.242.383,1.681.881a4.892,4.892,0,0,1,.539,1.043c.178.35.49.682.846.63a.872.872,0,0,0,.62-.808,4.967,4.967,0,0,0-.067-1.15,2.752,2.752,0,0,1,.42-1.94c.269-.353.674-.563.94-.921.641-.865.35-2.317,1.053-3.12a1.668,1.668,0,0,1,1.616-.45,6.889,6.889,0,0,1,1.616.7,11.993,11.993,0,0,0,2.212.854c.641.175,1.385.6,1.6-.269A5.694,5.694,0,0,0,335.266,151.087Z" transform="translate(-246.933 -115.29)" fill="#865a61"/>
    <path id="Caminho_238" data-name="Caminho 238" d="M327.332,220.353l-.108,4.135a18.241,18.241,0,0,0,4.8.639c.269,0,.552,0,.827-.019a18.115,18.115,0,0,0,4.249-.7h.027c.256-.075.509-.154.76-.24h.027l.229-.081a17.757,17.757,0,0,0,2.532-1.121l.051-.027L341,222.8l-.418-5.574.665-3.823-3.642-2.481a6.415,6.415,0,0,1-.684.83,4.58,4.58,0,0,1-1.245.921c-2.613,1.288-5.587-.76-7.067-2.026l-.337-.3c-.383-.348-.6-.585-.6-.585l-1.821,2.813Z" transform="translate(-249.702 -159.681)" opacity="0.1"/>
    <path id="Caminho_239" data-name="Caminho 239" d="M327.332,221.353l-.108,4.135a18.241,18.241,0,0,0,4.8.639c.269,0,.552,0,.827-.019a18.115,18.115,0,0,0,4.249-.7h.027c.256-.075.509-.154.76-.24h.027l.229-.081a17.761,17.761,0,0,0,2.532-1.121l.051-.027L341,223.8l-.418-5.574.665-3.823-3.642-2.481a6.416,6.416,0,0,1-.684.83,4.58,4.58,0,0,1-1.245.921c-2.613,1.288-5.587-.76-7.067-2.026l-.337-.3c-.383-.348-.6-.585-.6-.585l-1.821,2.813Z" transform="translate(-249.702 -160.412)" fill="#53526b"/>
    <path id="Caminho_240" data-name="Caminho 240" d="M294.36,213.029c.24.321.49.63.752.935.14.164.286.326.434.485q.11.124.226.242a17.975,17.975,0,0,0,1.956,1.775l.048.035a18.24,18.24,0,0,0,5.426,2.915l.245.078c.151.051.307.1.461.14l.062.019c.078.022.156.046.237.065a18.241,18.241,0,0,0,4.8.638c.269,0,.552,0,.827-.019.21-3.438.269-6.2-.059-6.9a11.113,11.113,0,0,0-.665-1.191c-1.331-2.139-3.772-5.356-3.64-5.763a4.22,4.22,0,0,0,.11-.606c.143-1.061.286-3,.286-3h0c-.059,0-1.266.03-3.042,2.449-1.821,2.484-5.795,2.815-5.795,2.815S295.817,207.6,294.36,213.029Z" transform="translate(-226.696 -154.648)" fill="#555388"/>
    <path id="Caminho_241" data-name="Caminho 241" d="M362.941,218.667s.2,1.587.461,3.483h.027l.229-.081a17.757,17.757,0,0,0,2.532-1.121l.051-.027.269-.148a18.274,18.274,0,0,0,3.324-2.392l.089-.084a17.12,17.12,0,0,0,1.565-1.616l.057-.067c-.962-3.338-2.963-4.389-2.963-4.389a5.292,5.292,0,0,1-2.32-1.988c-.5-1.158-4.9-3.607-4.9-3.607v.019c0,.207-.07,2.107-.175,4.017-.067,1.242-.151,2.489-.248,3.281a3.835,3.835,0,0,1-.14.76C360.46,215.523,362.941,218.667,362.941,218.667Z" transform="translate(-275.214 -157.395)" fill="#555388"/>
  </g>
</svg>
