<svg id="sign_in" xmlns="http://www.w3.org/2000/svg" width="200" height="139.151" viewBox="0 0 200 139.151">
  <ellipse id="Elipse_6" data-name="Elipse 6" cx="39.849" cy="3.026" rx="39.849" ry="3.026" transform="translate(0 133.098)" fill="#e6e6e6"/>
  <path id="Caminho_33" data-name="Caminho 33" d="M324.272,233.652c6.935-2.95,15.572-1.081,24.008.216.079-1.571,1.03-3.482.033-4.578a3.33,3.33,0,0,1-.371-4.137c1.863-3.6-.806-7.426-3.5-10.609a5.97,5.97,0,0,0-4.982-2.091l-4.993.357a5.98,5.98,0,0,0-5.31,4.274h0c-1.192,1.621-1.83,3.238-1.429,4.847-1.786,1.22-2.086,2.694-1.283,4.354a2.5,2.5,0,0,1-.031,3.053,14.1,14.1,0,0,0-2.1,4.163Z" transform="translate(-293.812 -202.777)" fill="#2f2e41"/>
  <path id="Caminho_34" data-name="Caminho 34" d="M544.58,623.8H403.239a4.739,4.739,0,0,1-4.739-4.739h0a638.843,638.843,0,0,1,150.82,0h0A4.739,4.739,0,0,1,544.58,623.8Z" transform="translate(-349.32 -503.51)" fill="#2f2e41"/>
  <path id="Caminho_35" data-name="Caminho 35" d="M549.32,335.016l-150.82-.279,17.479-29.411.084-.139V240.368a5.991,5.991,0,0,1,5.991-5.991H524.929a5.991,5.991,0,0,1,5.991,5.992v65.264Z" transform="translate(-349.32 -219.183)" fill="#3f3d56"/>
  <path id="Caminho_36" data-name="Caminho 36" d="M485.564,250.957a1.954,1.954,0,0,0-1.951,1.951v59.1a1.954,1.954,0,0,0,1.951,1.951H589.549a1.954,1.954,0,0,0,1.951-1.951v-59.1a1.954,1.954,0,0,0-1.951-1.951Z" transform="translate(-412.966 -229.581)" fill="#fff"/>
  <path id="Caminho_37" data-name="Caminho 37" d="M474.629,531.718a.839.839,0,0,0-.76.487l-5.386,11.709a.836.836,0,0,0,.76,1.186H582.507a.836.836,0,0,0,.748-1.21L577.4,532.18a.832.832,0,0,0-.748-.462Z" transform="translate(-401.595 -441.533)" fill="#2f2e41"/>
  <circle id="Elipse_7" data-name="Elipse 7" cx="1.255" cy="1.255" r="1.255" transform="translate(122.918 15.89)" fill="#fff"/>
  <path id="Caminho_38" data-name="Caminho 38" d="M645.215,593.619a.838.838,0,0,0-.807.619l-1.351,5.018a.836.836,0,0,0,.807,1.054h25.693a.836.836,0,0,0,.79-1.11l-1.737-5.018a.837.837,0,0,0-.79-.563Z" transform="translate(-532.176 -487.822)" fill="#2f2e41"/>
  <path id="Caminho_39" data-name="Caminho 39" d="M379.247,337.135v1.115H264.306l.087-.139v-.976Z" transform="translate(-197.646 -252.107)" fill="#2f2e41"/>
  <circle id="Elipse_8" data-name="Elipse 8" cx="19.515" cy="19.515" r="19.515" transform="translate(158.88 0)" fill="#00368f"/>
  <path id="Caminho_40" data-name="Caminho 40" d="M891.642,249.68H875.473a1.116,1.116,0,0,1-1.115-1.115v-9.757a1.116,1.116,0,0,1,1.115-1.115h16.169a1.116,1.116,0,0,1,1.115,1.115v9.757A1.116,1.116,0,0,1,891.642,249.68Zm-16.169-10.872v9.757h16.17v-9.757Z" transform="translate(-705.163 -221.663)" fill="#fff"/>
  <path id="Caminho_41" data-name="Caminho 41" d="M900.974,212.357H890.938V207.9c0-3.231,2.11-5.576,5.018-5.576s5.018,2.345,5.018,5.576Zm-8.921-1.115h7.806V207.9c0-2.626-1.6-4.46-3.9-4.46s-3.9,1.834-3.9,4.46Z" transform="translate(-717.561 -195.212)" fill="#fff"/>
  <circle id="Elipse_9" data-name="Elipse 9" cx="1.115" cy="1.115" r="1.115" transform="translate(177.28 20.63)" fill="#fff"/>
  <path id="Caminho_42" data-name="Caminho 42" d="M614.131,353.352H533.767a1.49,1.49,0,0,1-1.488-1.488V331.93a1.49,1.49,0,0,1,1.488-1.488h80.363a1.49,1.49,0,0,1,1.488,1.488v19.935A1.49,1.49,0,0,1,614.131,353.352Zm-80.363-22.316a.894.894,0,0,0-.893.893v19.935a.894.894,0,0,0,.893.893h80.363a.894.894,0,0,0,.893-.893V331.93a.894.894,0,0,0-.893-.893Z" transform="translate(-449.359 -291.02)" fill="#e6e6e6"/>
  <circle id="Elipse_10" data-name="Elipse 10" cx="6.062" cy="6.062" r="6.062" transform="translate(90.833 44.05)" fill="#e6e6e6"/>
  <path id="Caminho_43" data-name="Caminho 43" d="M640.207,356.8a1.01,1.01,0,1,0,0,2.021h47.631a1.01,1.01,0,1,0,0-2.021Z" transform="translate(-529.311 -310.734)" fill="#e6e6e6"/>
  <path id="Caminho_44" data-name="Caminho 44" d="M640.207,380.842a1.01,1.01,0,1,0,0,2.021h20.5a1.01,1.01,0,1,0,0-2.021Z" transform="translate(-529.311 -328.709)" fill="#e6e6e6"/>
  <path id="Caminho_45" data-name="Caminho 45" d="M422.417,356.781l-14.856,7.9-.188-6.582a44,44,0,0,0,13.727-4.513l1.554-3.839a2.6,2.6,0,0,1,4.423-.675h0a2.6,2.6,0,0,1-.229,3.548Z" transform="translate(-355.955 -304.24)" fill="#ffb8b8"/>
  <path id="Caminho_46" data-name="Caminho 46" d="M322.793,533.736h0a2.919,2.919,0,0,1,.371-2.361l3.263-5.008a5.7,5.7,0,0,1,7.4-1.952h0c-1.372,2.335-1.18,4.383.474,6.162a29.667,29.667,0,0,0-7.046,4.8,2.919,2.919,0,0,1-4.46-1.644Z" transform="translate(-292.63 -435.594)" fill="#2f2e41"/>
  <path id="Caminho_47" data-name="Caminho 47" d="M388.525,472.252h0a5.6,5.6,0,0,1-4.759,2.719l-21.68.164-.94-5.453,9.59-2.821-8.086-6.206,8.838-10.343,16.053,14.962a5.6,5.6,0,0,1,.984,6.977Z" transform="translate(-321.387 -380.659)" fill="#2f2e41"/>
  <path id="Caminho_48" data-name="Caminho 48" d="M322.774,464.943H317.7c-4.559-31.248-9.2-62.583,4.513-74.279l16.172,2.633-2.069,13.727-9.026,10.343Z" transform="translate(-285.459 -336.054)" fill="#2f2e41"/>
  <path id="Caminho_49" data-name="Caminho 49" d="M338.121,686.609h0a2.919,2.919,0,0,1-2.361-.37l-5.513-.741a5.7,5.7,0,0,1-1.952-7.4h0c2.335,1.371,4.383,1.18,6.162-.474,1.257,2.539,3.329,2.384,5.308,4.523a2.919,2.919,0,0,1-1.644,4.46Z" transform="translate(-296.343 -550.641)" fill="#2f2e41"/>
  <path id="Caminho_50" data-name="Caminho 50" d="M371.294,269.43l-9.4-2.257a16.259,16.259,0,0,0,.94-10.531l6.394-.188A49.087,49.087,0,0,0,371.294,269.43Z" transform="translate(-321.944 -235.693)" fill="#ffb8b8"/>
  <path id="Caminho_51" data-name="Caminho 51" d="M357.22,323.13c-6.845,4.664-11.681.16-15.371-6.79.513-4.253-.318-9.342-1.855-14.872a10.123,10.123,0,0,1,6.18-12.207h0l8.086,3.385c6.866,5.6,8.217,11.659,5.641,18.053Z" transform="translate(-305.286 -260.225)" fill="#00368f"/>
  <path id="Caminho_52" data-name="Caminho 52" d="M281.291,303.682l-7.522,3.949,13.351,7.9,1.858,4.582a2.43,2.43,0,0,1-1.46,3.211h0a2.43,2.43,0,0,1-3.219-2.155l-.188-3.194-16.969-5.6a3.968,3.968,0,0,1-2.49-2.424h0a3.968,3.968,0,0,1,1.489-4.616l13.646-9.362Z" transform="translate(-249.054 -265.244)" fill="#ffb8b8"/>
  <path id="Caminho_53" data-name="Caminho 53" d="M331.038,298.547c-3.137-1.375-5.99.119-9.59,1.316l-.564-9.967c3.575-1.906,6.984-2.419,10.155-.94Z" transform="translate(-291.278 -259.357)" fill="#00368f"/>
  <circle id="Elipse_11" data-name="Elipse 11" cx="6.003" cy="6.003" r="6.003" transform="translate(37.509 13.692)" fill="#ffb8b8"/>
  <path id="Caminho_54" data-name="Caminho 54" d="M364.867,233.253c-5.944.582-10.472-.39-13.367-3.158v-2.229h12.863Z" transform="translate(-314.173 -214.315)" fill="#2f2e41"/>
</svg>
