<svg id="videos" xmlns="http://www.w3.org/2000/svg" width="300" height="172.816" viewBox="0 0 300 172.816">
  <path id="Caminho_242" data-name="Caminho 242" d="M417.012,395.413l-19.13,9.054,16.931-12.66a95.535,95.535,0,0,0-9.244-12.165L322.6,400.263l74.94-28.587a95.53,95.53,0,0,0-10.882-8.295L260.244,383.744a94.743,94.743,0,0,0-20.749,59.126H429.787a94.692,94.692,0,0,0-12.776-47.457Z" transform="translate(-206.163 -305.005)" fill="#f2f2f2"/>
  <path id="Caminho_243" data-name="Caminho 243" d="M422.349,325.163a95.213,95.213,0,0,0-114.8,24.676C337.441,343.29,389.476,331.954,422.349,325.163Z" transform="translate(-252.197 -272.665)" fill="#f2f2f2"/>
  <path id="Caminho_244" data-name="Caminho 244" d="M531.857,312.38c-3.257,9.642-8.25,18.428-18.428,18.428S495.575,322.542,495,312.38c-.733-12.984,8.016-18.481,18.428-18.428C525.73,294.016,535.722,300.937,531.857,312.38Z" transform="translate(-378.953 -258.045)" fill="#2f2e41"/>
  <rect id="Retângulo_21" data-name="Retângulo 21" width="30.142" height="43.927" transform="translate(119.273 51.883)" fill="#2f2e41"/>
  <path id="Caminho_245" data-name="Caminho 245" d="M534.708,408.738s.964,13.819-1.285,16.068,19.925,4.178,19.6,1.607-4.5-19.282-3.214-22.817S534.708,408.738,534.708,408.738Z" transform="translate(-404.861 -331.633)" fill="#ffb8b8"/>
  <path id="Caminho_246" data-name="Caminho 246" d="M534.708,408.738s.964,13.819-1.285,16.068,19.925,4.178,19.6,1.607-4.5-19.282-3.214-22.817S534.708,408.738,534.708,408.738Z" transform="translate(-404.861 -331.633)" opacity="0.1"/>
  <path id="Caminho_247" data-name="Caminho 247" d="M406.49,490.192l-11.547,39.045-.463,1.573H375.05c7.731-23.932,26.845-59.223,26.845-59.223l2.984-.676Z" transform="translate(-297.849 -377.735)" fill="#00368f"/>
  <path id="Caminho_248" data-name="Caminho 248" d="M406.49,490.192l-11.547,39.045-.463,1.573H375.05c7.731-23.932,26.845-59.223,26.845-59.223l2.984-.676Z" transform="translate(-297.849 -377.735)" opacity="0.1"/>
  <circle id="Elipse_57" data-name="Elipse 57" cx="14.461" cy="14.461" r="14.461" transform="translate(119.243 53.003)" fill="#ffb8b8"/>
  <path id="Caminho_249" data-name="Caminho 249" d="M545.286,454.3s-5.142,4.82-10.926,3.856-8.213-8-8.213-8l-5.606,4.142s-1.607,11.569,5.784,12.854,18,1.607,20.246,0S545.286,454.3,545.286,454.3Z" transform="translate(-396.156 -363.702)" fill="#3f3d56"/>
  <path id="Caminho_250" data-name="Caminho 250" d="M505.684,474.619l-.922,3-13.019,42.447H435.71a13.133,13.133,0,0,0,.262-1.573c.725-6.042.3-21.285.3-22.333,0-1.288,5.46-33.1,6.751-35.353a2.09,2.09,0,0,1,.767-.641,39.336,39.336,0,0,1,8.385-2.676s0,0,.006,0c2-.485,4.081-.932,5.971-1.311h0c1.854-.372,3.518-.676,4.735-.877a19.38,19.38,0,0,1,1.984-.275c.3,0,.514.353.66.893a24.631,24.631,0,0,1,.3,5.531,9.765,9.765,0,0,0,1.443,1.353,18.334,18.334,0,0,0,4.032,2.4,23.916,23.916,0,0,0,3.825,1.3h0a27.955,27.955,0,0,0,4.191.728,12.933,12.933,0,0,0,3.463-.068h.007a6.179,6.179,0,0,0,5.24-4.369c.1-.307.184-.6.256-.871,0,0,0-.01,0-.013.214-.825.3-1.4.531-1.395h0c.586.055,7.974,6.388,12.773,10.547,2.278,1.971,3.971,3.46,4.074,3.55Z" transform="translate(-338.878 -366.988)" fill="#00368f"/>
  <path id="Caminho_251" data-name="Caminho 251" d="M610.838,516.236l-13.019,42.447H592.54a3.473,3.473,0,0,0,.579-2.375c-.168-1.184,3.5-13.252,7.029-24.482,3.21-10.2,6.307-19.706,6.307-19.706l3.052,1.443S610.055,514.6,610.838,516.236Z" transform="translate(-444.954 -405.609)" opacity="0.1"/>
  <path id="Caminho_252" data-name="Caminho 252" d="M624.37,550.333c-.634.159-.566,2.042-.6,3.987H598.83a3.676,3.676,0,0,0,.8-2.7c-.165-1.136,2.294-12.848,4.777-24.159,1.951-8.945,3.919-17.641,4.6-20.667l.259-1.126.294.139.007,0,6.443,3.061.006,0s9.961,18.964,6.751,23.463-3.217,4.5-1.932,6.751S625.652,550.013,624.37,550.333Z" transform="translate(-449.209 -401.246)" fill="#00368f"/>
  <circle id="Elipse_58" data-name="Elipse 58" cx="7.274" cy="7.274" r="7.274" transform="translate(127.203 25.239)" fill="#2f2e41"/>
  <path id="Caminho_253" data-name="Caminho 253" d="M522.02,256.274a7.274,7.274,0,0,1,6.546-7.238c-.239-.024-.482-.037-.727-.037a7.274,7.274,0,1,0,0,14.548c.246,0,.488-.013.727-.037A7.274,7.274,0,0,1,522.02,256.274Z" transform="translate(-396.272 -227.64)" fill="#2f2e41"/>
  <path id="Caminho_254" data-name="Caminho 254" d="M499.351,332.4s-.152-.846-6.092,1.382-9.5,18.667-6.531,28.32c1.2,3.89.223,6.7-1.366,8.657-5.964,7.364-3.616,18.425,5.071,22.212q.368.16.751.317l3.713,2.228a16.98,16.98,0,0,1-2.364-14.194,40.843,40.843,0,0,0,.737-20.909c-.272-1.167-.58-2.369-.931-3.6-2.97-10.4-1.526-9.2,8.87-19.591a66.08,66.08,0,0,0,11.138,6.683c5.2,2.228,9.653,4.455,5.94,11.881S505.663,369.9,511.6,379.556s6.683,5.94,5.94,9.653h0l-.743,3.713,4.455-4.455-2.97,5.94s9.653,0,12.623-7.425l1.485,1.485s5.94-10.4-5.2-20.049c0,0-3.713-2.228,1.485-9.653s1.206-23.39-5.477-26.36S499.351,332.4,499.351,332.4Z" transform="translate(-370.225 -283.161)" fill="#2f2e41"/>
  <path id="Caminho_255" data-name="Caminho 255" d="M387.288,296.659l-12.372,21.43h2.892v2.892l14.061-24.322Z" transform="translate(-253.584 -200.653)" fill="#3f3d56"/>
  <rect id="Retângulo_22" data-name="Retângulo 22" width="50.162" height="19.741" transform="translate(244.984 138.835)" fill="#f2f2f2"/>
  <rect id="Retângulo_23" data-name="Retângulo 23" width="37.54" height="3.236" transform="translate(251.294 164.078)" fill="#f2f2f2"/>
  <rect id="Retângulo_24" data-name="Retângulo 24" width="37.54" height="2.589" transform="translate(251.294 169.903)" fill="#f2f2f2"/>
  <circle id="Elipse_59" data-name="Elipse 59" cx="1.294" cy="1.294" r="1.294" transform="translate(3.883 2.589)" fill="#00368f"/>
  <circle id="Elipse_60" data-name="Elipse 60" cx="1.294" cy="1.294" r="1.294" transform="translate(7.443 2.589)" fill="#00368f"/>
  <circle id="Elipse_61" data-name="Elipse 61" cx="1.294" cy="1.294" r="1.294" transform="translate(11.003 2.589)" fill="#00368f"/>
  <path id="Caminho_256" data-name="Caminho 256" d="M436.5,355.816h-300V183h300Zm-299.353-.647H435.853V183.647H137.147Z" transform="translate(-136.5 -183)" fill="#2f2e41"/>
  <rect id="Retângulo_25" data-name="Retângulo 25" width="299.353" height="0.647" transform="translate(0.324 6.5)" fill="#2f2e41"/>
  <rect id="Retângulo_26" data-name="Retângulo 26" width="9.709" height="0.647" transform="translate(3.883 11.974)" fill="#2f2e41"/>
  <rect id="Retângulo_27" data-name="Retângulo 27" width="9.709" height="0.647" transform="translate(3.883 14.563)" fill="#2f2e41"/>
  <rect id="Retângulo_28" data-name="Retângulo 28" width="9.709" height="0.647" transform="translate(3.883 17.152)" fill="#2f2e41"/>
  <path id="Caminho_257" data-name="Caminho 257" d="M523.888,225.825H403.5V220H523.888Zm-119.741-.647H523.241v-4.531H404.147Z" transform="translate(-317.092 -208.026)" fill="#2f2e41"/>
  <path id="Caminho_258" data-name="Caminho 258" d="M757.794,226.089a1.294,1.294,0,1,1,1.294-1.294A1.294,1.294,0,0,1,757.794,226.089Zm0-1.942a.647.647,0,1,0,.647.647A.647.647,0,0,0,757.794,224.147Z" transform="translate(-555.853 -210.393)" fill="#2f2e41"/>
  <rect id="Retângulo_29" data-name="Retângulo 29" width="0.647" height="1.777" transform="translate(202.383 15.339) rotate(-45.868)" fill="#2f2e41"/>
  <path id="Caminho_259" data-name="Caminho 259" d="M985.972,225.825H979.5V220h6.472Zm-5.825-.647h5.178v-4.531h-5.178Z" transform="translate(-706.684 -208.026)" fill="#2f2e41"/>
  <path id="Caminho_260" data-name="Caminho 260" d="M1010.972,225.825H1004.5V220h6.472Zm-5.825-.647h5.178v-4.531h-5.178Z" transform="translate(-723.594 -208.026)" fill="#2f2e41"/>
  <path id="Caminho_261" data-name="Caminho 261" d="M1035.973,225.825H1029.5V220h6.473Zm-5.825-.647h5.178v-4.531h-5.178Z" transform="translate(-740.503 -208.026)" fill="#2f2e41"/>
  <rect id="Retângulo_30" data-name="Retângulo 30" width="5.825" height="5.178" transform="translate(215.21 156.958)" fill="#ff6584"/>
  <rect id="Retângulo_31" data-name="Retângulo 31" width="5.825" height="5.178" transform="translate(223.301 156.958)" fill="#f2f2f2"/>
  <rect id="Retângulo_32" data-name="Retângulo 32" width="5.825" height="5.178" transform="translate(231.392 156.958)" fill="#f2f2f2"/>
  <path id="Caminho_262" data-name="Caminho 262" d="M407.212,394.566H186.5V269H407.212Zm-220.065-.647H406.565V269.647H187.147Z" transform="translate(-170.319 -241.168)" fill="#2f2e41"/>
  <path id="Caminho_263" data-name="Caminho 263" d="M279,621.192v3.041l-5.051-3.083a.177.177,0,0,0-.267.152v6.664a.177.177,0,0,0,.267.152L279,625.035v3.041a.089.089,0,0,0,.088.088h1.567a.089.089,0,0,0,.088-.088v-6.884a.089.089,0,0,0-.088-.088h-1.567A.088.088,0,0,0,279,621.192Z" transform="translate(-229.287 -479.322)" fill="#3f3d56"/>
  <path id="Caminho_264" data-name="Caminho 264" d="M245.177,628.164h-1.408a.177.177,0,0,1-.179-.177V621.28a.178.178,0,0,1,.179-.177h1.408a.178.178,0,0,1,.179.177v6.708A.178.178,0,0,1,245.177,628.164Zm3.883,0h-1.408a.178.178,0,0,1-.179-.177V621.28a.178.178,0,0,1,.179-.177h1.408a.178.178,0,0,1,.179.177v6.708A.177.177,0,0,1,249.061,628.164Z" transform="translate(-208.934 -479.322)" fill="#3f3d56"/>
  <path id="Caminho_265" data-name="Caminho 265" d="M215.5,621.291v6.695a.172.172,0,0,0,.258.159l5.307-3.347a.19.19,0,0,0,0-.316l-5.307-3.347a.171.171,0,0,0-.258.157Z" transform="translate(-189.933 -479.327)" fill="#00368f"/>
  <rect id="Retângulo_33" data-name="Retângulo 33" width="199.676" height="1.294" transform="translate(26.699 137.217)" fill="#2f2e41"/>
  <rect id="Retângulo_34" data-name="Retângulo 34" width="34.79" height="1.294" transform="translate(26.699 137.217)" fill="#00368f"/>
  <rect id="Retângulo_35" data-name="Retângulo 35" width="91.586" height="3.56" transform="translate(16.505 157.605)" fill="#f2f2f2"/>
  <rect id="Retângulo_36" data-name="Retângulo 36" width="20.065" height="3.56" transform="translate(16.505 165.696)" fill="#f2f2f2"/>
  <rect id="Retângulo_37" data-name="Retângulo 37" width="50.162" height="19.741" transform="translate(244.984 34.628)" fill="#f2f2f2"/>
  <rect id="Retângulo_38" data-name="Retângulo 38" width="37.54" height="3.236" transform="translate(251.294 59.871)" fill="#f2f2f2"/>
  <rect id="Retângulo_39" data-name="Retângulo 39" width="37.54" height="3.236" transform="translate(251.294 65.696)" fill="#f2f2f2"/>
  <rect id="Retângulo_40" data-name="Retângulo 40" width="37.54" height="3.236" transform="translate(251.294 71.521)" fill="#f2f2f2"/>
  <rect id="Retângulo_41" data-name="Retângulo 41" width="50.162" height="19.741" transform="translate(244.984 86.731)" fill="#f2f2f2"/>
  <rect id="Retângulo_42" data-name="Retângulo 42" width="37.54" height="3.236" transform="translate(251.294 111.974)" fill="#f2f2f2"/>
  <rect id="Retângulo_43" data-name="Retângulo 43" width="37.54" height="3.236" transform="translate(251.294 117.799)" fill="#f2f2f2"/>
  <rect id="Retângulo_44" data-name="Retângulo 44" width="37.54" height="3.236" transform="translate(251.294 123.625)" fill="#f2f2f2"/>
  <path id="Caminho_266" data-name="Caminho 266" d="M788.4,591.981l-.668-.5c-2.375-1.826-3.942-3.01-4.084-4.642a2.331,2.331,0,0,1,2.142-2.568,2.507,2.507,0,0,0,3.843-.336,2.331,2.331,0,0,1,2.555,2.157c.143,1.632-1.194,3.069-3.216,5.28Z" transform="translate(-574.209 -454.172)" fill="#ff6584"/>
  <path id="Caminho_267" data-name="Caminho 267" d="M818.4,565.9l-.366-.753c-1.287-2.706-2.145-4.471-1.531-5.99a2.331,2.331,0,0,1,3.074-1.316,2.507,2.507,0,0,0,3.576,1.445,2.331,2.331,0,0,1,1.3,3.082c-.614,1.519-2.458,2.193-5.263,3.244Z" transform="translate(-596.301 -436.414)" fill="#ff6584"/>
  <path id="Caminho_268" data-name="Caminho 268" d="M808.4,632.9l-.366-.753c-1.287-2.706-2.145-4.471-1.531-5.99a2.331,2.331,0,0,1,3.074-1.316,2.507,2.507,0,0,0,3.576,1.445,2.331,2.331,0,0,1,1.3,3.082c-.614,1.519-2.458,2.193-5.263,3.244Z" transform="translate(-589.537 -481.731)" fill="#ff6584"/>
</svg>
