<svg xmlns="http://www.w3.org/2000/svg" width="200" height="123.234" viewBox="0 0 200 123.234">
  <g id="Wellcome" transform="translate(0 0.001)">
    <path id="Caminho_114" data-name="Caminho 114" d="M503.347,321.427l-.252-.262a28.835,28.835,0,0,0,6.9-13.981c1.746-8.381,1.156-22.18-11.566-40.322-5.316-7.58-8.941-14.741-10.775-21.286a31.982,31.982,0,0,1-.943-14.775c1.725-8.811,7.589-12.679,7.648-12.717l.2.306c-.058.037-5.8,3.833-7.491,12.492-1.941,9.935,1.983,21.97,11.661,35.77,5.651,8.058,9.413,15.949,11.181,23.453a39.4,39.4,0,0,1,.439,17.174A29.2,29.2,0,0,1,503.347,321.427Z" transform="translate(-409.462 -199.061)" fill="#f2f2f2"/>
    <circle id="Elipse_37" data-name="Elipse 37" cx="14.075" cy="14.075" r="14.075" transform="translate(67.603 11.167)" fill="#f2f2f2"/>
    <path id="Caminho_115" data-name="Caminho 115" d="M445.18,151.8a19.178,19.178,0,1,1,19.178-19.178A19.178,19.178,0,0,1,445.18,151.8Zm0-37.992a18.814,18.814,0,1,0,18.814,18.814,18.814,18.814,0,0,0-18.814-18.814Z" transform="translate(-360.183 -113.449)" fill="#f2f2f2"/>
    <circle id="Elipse_38" data-name="Elipse 38" cx="11.672" cy="11.672" r="11.672" transform="translate(84.081 45.497)" fill="#f2f2f2"/>
    <circle id="Elipse_39" data-name="Elipse 39" cx="11.672" cy="11.672" r="11.672" transform="translate(78.131 86.006)" fill="#f2f2f2"/>
    <rect id="Ret창ngulo_7" data-name="Ret창ngulo 7" width="42.727" height="27.818" transform="translate(96.077 20.727)" fill="#00368f"/>
    <path id="Caminho_116" data-name="Caminho 116" d="M962.68,697.5H923.109s-.8-11.764,3.944-11.9,4.211,5.214,10.16-2.139,13.168-6.952,14.1-2.607-1.8,7.821,3.208,6.751S966.758,689.345,962.68,697.5Z" transform="translate(-766.865 -575.137)" fill="#f2f2f2"/>
    <path id="Caminho_117" data-name="Caminho 117" d="M1027.889,697.191l-.133-.005c.311-7.746,1.934-12.722,3.24-15.533a14.1,14.1,0,0,1,2.8-4.3l.089.1a14,14,0,0,0-2.771,4.267C1029.813,684.518,1028.2,689.475,1027.889,697.191Z" transform="translate(-852.527 -574.825)" fill="#fff"/>
    <path id="Caminho_118" data-name="Caminho 118" d="M1106.682,747.294l-.128-.037a20.738,20.738,0,0,1,5.221-8.686l.09.1A20.6,20.6,0,0,0,1106.682,747.294Z" transform="translate(-916.999 -624.913)" fill="#fff"/>
    <path id="Caminho_119" data-name="Caminho 119" d="M941.829,734.114l-.132-.018a14.561,14.561,0,0,0-1.31-8.51,11.719,11.719,0,0,0-2.067-3.016l.093-.1a11.862,11.862,0,0,1,2.094,3.053A14.694,14.694,0,0,1,941.829,734.114Z" transform="translate(-779.353 -611.741)" fill="#fff"/>
    <path id="Caminho_120" data-name="Caminho 120" d="M141.481,692.028l-.091-.188c-.028-.057-2.761-5.771-1.237-11.406s6.766-9.191,6.819-9.227l.173-.116.091.188c.028.057,2.761,5.771,1.237,11.406s-6.766,9.191-6.819,9.227ZM147,671.635c-.918.668-5.163,3.975-6.494,8.895s.668,9.917,1.124,10.956c.918-.668,5.163-3.975,6.494-8.895h0c1.332-4.924-.668-9.917-1.124-10.956Z" transform="translate(-125.929 -569.703)" fill="#3f3d56"/>
    <path id="Caminho_121" data-name="Caminho 121" d="M108.7,683.84c1.524,5.634,6.744,9.123,6.744,9.123s2.749-5.645,1.225-11.279-6.744-9.123-6.744-9.123S107.178,678.206,108.7,683.84Z" transform="translate(-100.198 -570.905)" fill="#00368f"/>
    <path id="Caminho_122" data-name="Caminho 122" d="M80.058,717.729l-.208-.011c-.063,0-6.386-.393-10.568-4.464s-4.742-10.381-4.747-10.444l-.017-.208.208.011c.063,0,6.386.393,10.568,4.464s4.742,10.381,4.747,10.445ZM64.92,702.993c.137,1.126.963,6.445,4.615,10s8.99,4.238,10.12,4.345c-.137-1.127-.963-6.444-4.615-10h0C71.385,703.78,66.049,703.1,64.92,702.993Z" transform="translate(-64.423 -595.483)" fill="#f2f2f2"/>
    <path id="Caminho_123" data-name="Caminho 123" d="M153.594,708.075c-4.182,4.071-4.693,10.329-4.693,10.329s6.27-.342,10.451-4.413,4.693-10.329,4.693-10.329S157.776,704,153.594,708.075Z" transform="translate(-133.464 -596.351)" fill="#3f3d56"/>
    <path id="Caminho_124" data-name="Caminho 124" d="M340.594,514.075c-4.182,4.071-4.693,10.329-4.693,10.329s6.27-.342,10.451-4.413,4.693-10.329,4.693-10.329S344.776,510,340.594,514.075Z" transform="translate(-286.464 -437.624)" fill="#3f3d56"/>
    <circle id="Elipse_40" data-name="Elipse 40" cx="2.727" cy="2.727" r="2.727" transform="translate(12.622 95.272)" fill="#00368f"/>
    <path id="Caminho_125" data-name="Caminho 125" d="M268.892,415.764l-.252-.262a22.875,22.875,0,0,0,5.472-11.092c1.384-6.65.914-17.6-9.184-32-7.744-11.043-10.878-20.691-9.315-28.676a16.167,16.167,0,0,1,6.092-10.127l.2.306a15.8,15.8,0,0,0-5.935,9.9c-1.539,7.882,1.576,17.433,9.258,28.386a55.038,55.038,0,0,1,8.889,18.645,31.341,31.341,0,0,1,.349,13.66A23.237,23.237,0,0,1,268.892,415.764Z" transform="translate(-220.455 -293.58)" fill="#3f3d56"/>
    <ellipse id="Elipse_41" data-name="Elipse 41" cx="32.727" cy="5.615" rx="32.727" ry="5.615" transform="translate(13.895 37.861)" fill="#00368f"/>
    <path id="Caminho_126" data-name="Caminho 126" d="M104.876,310.631c-22.685,0-40.455-3.115-40.455-7.091s17.77-7.091,40.455-7.091,40.455,3.115,40.455,7.091S127.56,310.631,104.876,310.631Zm0-13.818c-21.731,0-40.091,3.081-40.091,6.727s18.359,6.727,40.091,6.727,40.091-3.081,40.091-6.727S126.607,296.813,104.876,296.813Z" transform="translate(-64.344 -263.177)" fill="#f2f2f2"/>
    <path id="Caminho_127" data-name="Caminho 127" d="M305.873,183.369s-4.85-1.366-6.284,5.26-.342,9.973-.342,9.973l10.827-1.264S313.148,185.384,305.873,183.369Z" transform="translate(-256.149 -170.561)" fill="#2f2e41"/>
    <path id="Caminho_128" data-name="Caminho 128" d="M270.584,341.729s-7.114.708-5.847,3.58A20.483,20.483,0,0,1,266,348.435l6.251,11.15,2.027-2.112S272,352.489,272,350.884s-2.365-4.392-2.365-4.392l4.139-.338Z" transform="translate(-228.116 -300.224)" fill="#a0616a"/>
    <path id="Caminho_129" data-name="Caminho 129" d="M381.226,358.972l2.365,5.153s1.774,1.774,3.717,8.869,2.365,6.842,2.365,6.842l-2.956.591s-3.294-7.687-4.392-8.278-2.45-6-2.45-6l-3.886-4.9,1.183-2.619Z" transform="translate(-319.264 -314.055)" fill="#a0616a"/>
    <path id="Caminho_130" data-name="Caminho 130" d="M309.934,319.608l3.632,6.758s-4.561-2.112-5.237,2.534l-4.139-3.21s-5.744,1.858-9.207,1.182a3.789,3.789,0,0,0-2.619-4.646l8.194-1.014-.338-1.774.845-1.689Z" transform="translate(-250.843 -280.605)" fill="#2f2e41"/>
    <path id="Caminho_131" data-name="Caminho 131" d="M301.51,420.72s-2.281-.338-1.689,1.689L301,426.464s-1.52,4.139.845,3.21S305.734,423,305.734,423s1.014-4.392,0-4.392-4.224-.676-3.886,0S301.51,420.72,301.51,420.72Z" transform="translate(-256.864 -362.879)" fill="#2f2e41"/>
    <path id="Caminho_132" data-name="Caminho 132" d="M431.149,467.659s-2.956-.76-3.632.422-.507,5.068-.507,5.153a3.447,3.447,0,0,0,1.352.929c.338,0,2.45,3.8,5.322,2.45S431.149,467.659,431.149,467.659Z" transform="translate(-360.993 -403.061)" fill="#2f2e41"/>
    <circle id="Elipse_42" data-name="Elipse 42" cx="3.294" cy="3.294" r="3.294" transform="translate(45.575 16.534)" fill="#a0616a"/>
    <path id="Caminho_133" data-name="Caminho 133" d="M331.855,226.227s.676,3.548,1.267,4.055-4.477,1.267-4.477,1.267.76-2.45-.169-3.717S331.855,226.227,331.855,226.227Z" transform="translate(-280.282 -205.722)" fill="#a0616a"/>
    <path id="Caminho_134" data-name="Caminho 134" d="M323.776,258.114a29.864,29.864,0,0,1-3.682-.545c-1.421-.265-2.976-.58-4.2-.835-1.314-.274-2.252-.478-2.252-.478s-.338,2.112-1.436,1.858c-.946-.218-3.773-10.093-4.538-12.823a.949.949,0,0,1,.42-1.067l3.883-2.371,1,.38a6.858,6.858,0,0,1,2.657-1.325c.976-.026,2.665-.28,2.665-.28s1.943.169,2.281,1.6.507,10.39,1.774,11.995S325.381,258.114,323.776,258.114Z" transform="translate(-263.334 -217.506)" fill="#d0cde1"/>
    <path id="Caminho_135" data-name="Caminho 135" d="M331.389,359.394s0,3.294,2.2,2.788.169-3.548.169-3.548Z" transform="translate(-282.773 -314.055)" fill="#a0616a"/>
    <path id="Caminho_136" data-name="Caminho 136" d="M350.986,361.252s-.76,3.886-2.365,3.294,0-4.055,0-4.055Z" transform="translate(-296.288 -315.575)" fill="#a0616a"/>
    <path id="Caminho_137" data-name="Caminho 137" d="M358.755,281.723s-.827,1.973-1.486,3.594c-1.421-.265-2.976-.58-4.2-.835a2.419,2.419,0,0,1,.367-.647c.591-.676.253-.845.253-.845a3.654,3.654,0,0,1-.084-2.365c-1.014-2.7.507-6.082.507-6.082Z" transform="translate(-300.509 -245.254)" opacity="0.15"/>
    <path id="Caminho_138" data-name="Caminho 138" d="M350.69,263.906s-1.52,3.379-.507,6.082a3.654,3.654,0,0,0,.084,2.365s.338.169-.253.845-1.1,3.041-.676,3.548-.591,1.436-.338,1.943-.422,1.183-.422,1.183,2.534.507,2.956,1.267a1.367,1.367,0,0,0,.253-1.267,1.247,1.247,0,0,1,.169-1.352,10.119,10.119,0,0,0,1.1-1.774c.085-.422,2.281-5.66,2.281-5.66l-1.03-9.544Z" transform="translate(-296.837 -234.617)" fill="#d0cde1"/>
    <path id="Caminho_139" data-name="Caminho 139" d="M307.656,261.535l-.158.029a.949.949,0,0,0-.78.941c.006.848.054,2.353.262,4.436a55.365,55.365,0,0,0,1.774,8.954,26.974,26.974,0,0,0,1.352,2.619c.76,1.267.929.845.76,1.436a.89.89,0,0,0,.253.929s1.52-1.689,3.041-.76a1.882,1.882,0,0,0,.169-.76c0-.422.253-.845-.169-1.1s.253-1.352-.422-1.943-.76-.507-.676-1.1a2.516,2.516,0,0,0-.169-1.183Z" transform="translate(-262.587 -234.611)" fill="#d0cde1"/>
    <path id="Caminho_140" data-name="Caminho 140" d="M315.889,199.235a10.049,10.049,0,0,1-4.713,5.123l-.547-3.21Z" transform="translate(-265.787 -183.638)" fill="#2f2e41"/>
    <ellipse id="Elipse_43" data-name="Elipse 43" cx="0.465" cy="0.887" rx="0.465" ry="0.887" transform="translate(51.615 17.675)" fill="#a0616a"/>
    <circle id="Elipse_44" data-name="Elipse 44" cx="5.901" cy="5.901" r="5.901" transform="translate(141.702 53.445)" fill="#2f2e41"/>
    <circle id="Elipse_45" data-name="Elipse 45" cx="1.96" cy="1.96" r="1.96" transform="translate(144.854 49.636)" fill="#2f2e41"/>
    <path id="Caminho_141" data-name="Caminho 141" d="M856.044,392.1a1.96,1.96,0,0,1,.168-2.624q-.082.053-.16.115a1.96,1.96,0,1,0,2.438,3.07,1.93,1.93,0,0,0,.148-.13,1.96,1.96,0,0,1-2.593-.43Z" transform="translate(-711.436 -339.289)" fill="#2f2e41"/>
    <path id="Caminho_142" data-name="Caminho 142" d="M792.38,557.219l-3.415,2.89s-5.123,1.576-2.627,3.284,3.941-2.1,3.941-2.1l4.2-2.627Z" transform="translate(-654.442 -476.534)" fill="#ffb9b9"/>
    <path id="Caminho_143" data-name="Caminho 143" d="M825.282,486.68l-.394-.263a1.881,1.881,0,0,0-1.839,1.576c-.263,1.576-1.051,4.86-1.051,4.86a5.053,5.053,0,0,0-2.365,4.466l-2.758,2.364s3.284,1.051,2.627,1.97l4.86-4.466.131-8.538Z" transform="translate(-679.989 -418.605)" fill="#2f2e41"/>
    <circle id="Elipse_46" data-name="Elipse 46" cx="3.415" cy="3.415" r="3.415" transform="translate(143.454 58.223)" fill="#ffb9b9"/>
    <path id="Caminho_144" data-name="Caminho 144" d="M861.865,458.372s2.1,2.364.788,3.678-1.708,7.75-1.708,7.75l5.78-8.8s-1.576-3.153-1.445-4.2Z" transform="translate(-716.047 -394.369)" fill="#ffb9b9"/>
    <path id="Caminho_145" data-name="Caminho 145" d="M801.729,482.725s3.153-6.924,4.86-7.4l4.466,1.1s-3.547,12.216-3.153,13.4,2.627,2.89,1.839,13.267c0,0,10.115,18.521,7.619,21.674s-11.822,5.517-11.954,4.6-4.335-15.106-3.678-19.441c0,0,0,18.784-.788,19.178s-13.4,3.284-13,1.051,6.7-26.8,6.7-26.8l4.86-15.238.131-2.233s-2.1-1.445-.525-4.729a18.655,18.655,0,0,1,2.1-3.809l1.892-.355S801.334,481.806,801.729,482.725Z" transform="translate(-656.304 -409.527)" fill="#2f2e41"/>
    <path id="Caminho_146" data-name="Caminho 146" d="M885.773,570.223l-1.576,3.415s-4.072,4.335-1.182,4.466,3.153-3.941,3.153-3.941l2.1-3.941Z" transform="translate(-733.255 -487.174)" fill="#ffb9b9"/>
    <path id="Caminho_147" data-name="Caminho 147" d="M899.105,481.709h1.708s.525-.788,1.051,2.5a49.527,49.527,0,0,1,.263,8.276l-.788,6.568s-2.758-1.051-3.415-.788,0-.131,0-.131l1.182-4.466-1.445-6.437Z" transform="translate(-746.062 -414.685)" fill="#2f2e41"/>
    <path id="Caminho_148" data-name="Caminho 148" d="M854.357,423.667c-2.231.606-3.753,2.152-3.4,3.454a1.986,1.986,0,0,0,1.378,1.264l.625-.775.028.94c.1.017.2.032.3.043l.793-1.671.452,1.665a7.021,7.021,0,0,0,1.1-.207c2.231-.606,3.753-2.152,3.4-3.454S856.587,423.061,854.357,423.667Z" transform="translate(-707.833 -367.065)" fill="#2f2e41"/>
    <ellipse id="Elipse_47" data-name="Elipse 47" cx="0.394" cy="0.657" rx="0.394" ry="0.657" transform="translate(149.956 60.259)" fill="#ffb9b9"/>
    <ellipse id="Elipse_48" data-name="Elipse 48" cx="3.091" cy="1.364" rx="3.091" ry="1.364" transform="translate(133.895 119.636)" fill="#2f2e41"/>
    <ellipse id="Elipse_49" data-name="Elipse 49" cx="4.144" cy="1.818" rx="4.144" ry="1.818" transform="translate(148.573 119.85) rotate(-21.513)" fill="#2f2e41"/>
    <path id="Caminho_149" data-name="Caminho 149" d="M757.521,341.432a11.652,11.652,0,0,1-7.5-6.837c-2.339-6.214.411-14.976,8.172-26.043,9.48-13.518,9.995-18.06,8.757-19.49-1.565-1.809-6.477.64-6.526.665l-.164-.325c.212-.107,5.215-2.6,6.965-.579,1.924,2.222-1.015,8.93-8.734,19.937-4.206,6-6.955,11.38-8.171,16-.986,3.745-.973,7.009.039,9.7a11.274,11.274,0,0,0,7.246,6.618Z" transform="translate(-624.631 -256.293)" fill="#3f3d56"/>
    <path id="Caminho_150" data-name="Caminho 150" d="M606.057,222.267H560.421V192.449h45.636Zm-45.273-.364h44.909V192.813H560.785Z" transform="translate(-470.163 -178.086)" fill="#3f3d56"/>
    <circle id="Elipse_50" data-name="Elipse 50" cx="1.915" cy="1.915" r="1.915" transform="translate(107.349 29.397)" fill="#fafafa"/>
    <circle id="Elipse_51" data-name="Elipse 51" cx="1.915" cy="1.915" r="1.915" transform="translate(123.701 29.397)" fill="#fafafa"/>
    <path id="Caminho_151" data-name="Caminho 151" d="M680.642,327.62c0,.569-3.693,2.21-8.25,2.21s-8.25-1.64-8.25-2.21,3.693.147,8.25.147S680.642,327.05,680.642,327.62Z" transform="translate(-555.026 -288.5)" fill="#fafafa"/>
    <rect id="Ret창ngulo_8" data-name="Ret창ngulo 8" width="200" height="0.364" transform="translate(0 122.1)" fill="#3f3d56"/>
  </g>
</svg>
